<svg xmlns="http://www.w3.org/2000/svg" width="1024" height="1024" viewBox="0 0 1024 1024">
<g>
<path d="M 458.44 702.87 C447.46,704.91 445.59,704.46 432.87,696.71 C425.78,692.39 422.00,689.48 421.50,687.95 C421.22,687.10 419.16,684.62 416.92,682.45 L 412.84 678.50 L 415.92 684.47 C419.49,691.39 419.70,692.17 417.14,688.88 C414.40,685.37 401.00,659.34 401.00,657.52 C401.00,656.66 404.28,652.26 408.29,647.73 C418.29,636.43 442.36,607.14 449.23,597.90 C459.65,583.89 463.96,571.34 463.99,554.90 C464.00,546.87 464.30,545.04 465.84,543.64 C467.76,541.91 468.10,541.87 514.00,538.47 C551.87,535.66 562.67,534.37 566.92,532.16 C575.64,527.62 573.74,529.06 599.44,507.50 C605.34,502.55 612.27,496.86 614.83,494.86 C623.51,488.10 630.24,481.20 629.44,479.90 C628.90,479.03 629.18,478.85 630.39,479.32 C631.33,479.68 631.87,479.60 631.59,479.15 C630.95,478.12 636.17,473.23 641.50,469.87 C643.70,468.48 647.51,466.03 649.96,464.42 C652.42,462.81 656.65,460.38 659.36,459.00 C663.37,456.97 664.35,455.95 664.60,453.59 C664.76,451.99 665.45,450.34 666.12,449.93 C667.05,449.35 666.92,448.53 665.60,446.51 C663.89,443.90 663.90,443.87 665.92,444.96 C668.35,446.26 669.48,449.92 668.45,453.17 C667.79,455.23 667.89,455.34 669.36,454.12 C671.44,452.39 671.48,447.08 669.45,442.22 C667.22,436.88 662.73,432.52 652.69,425.96 L 643.87 420.20 L 650.69 419.16 C668.68,416.40 758.47,410.08 763.53,411.21 C764.61,411.45 760.10,411.96 753.50,412.34 C736.92,413.30 719.70,415.06 718.50,415.93 C716.79,417.16 704.99,418.87 693.85,419.51 C687.99,419.85 681.96,420.45 680.46,420.85 C677.72,421.58 677.73,421.59 681.61,422.76 C683.75,423.40 689.88,424.40 695.23,424.97 C709.78,426.53 714.62,428.71 722.54,437.27 C730.19,445.53 731.55,447.83 732.49,454.08 C733.85,463.13 729.66,471.49 714.05,490.90 C709.90,496.06 705.38,501.72 704.00,503.47 C702.62,505.22 696.52,511.57 690.43,517.57 C680.04,527.82 680.21,528.06 691.06,518.51 C693.57,516.31 692.06,518.01 687.69,522.31 C683.20,526.73 679.18,529.90 678.43,529.61 C677.65,529.31 677.30,529.62 677.59,530.36 C677.85,531.06 676.94,532.23 675.57,532.96 C674.19,533.70 673.35,534.80 673.69,535.40 C674.04,536.01 673.98,536.20 673.57,535.82 C672.65,535.00 663.39,543.87 663.77,545.20 C663.93,545.72 663.67,545.91 663.20,545.62 C662.74,545.34 659.49,548.24 655.99,552.09 C652.40,556.04 649.06,558.85 648.33,558.57 C647.61,558.30 647.13,558.62 647.26,559.29 C647.39,559.95 646.94,560.39 646.25,560.25 C645.56,560.11 645.11,560.34 645.25,560.75 C645.39,561.16 645.05,561.64 644.50,561.82 C642.36,562.51 640.16,565.26 640.67,566.59 C641.47,568.67 642.02,568.41 647.50,563.35 C654.73,556.67 658.28,553.90 652.96,559.08 C646.18,565.69 640.17,571.00 639.47,571.00 C639.13,571.00 638.18,571.67 637.36,572.50 C636.53,573.33 635.37,574.00 634.78,574.00 C633.65,574.00 636.51,571.30 639.61,569.43 C640.81,568.70 641.02,568.13 640.25,567.66 C639.63,567.27 636.88,568.86 634.09,571.23 C625.86,578.21 594.78,606.50 591.05,610.39 C585.33,616.38 588.62,614.45 596.40,607.25 C612.70,592.18 621.00,584.91 621.00,585.69 C621.00,586.62 611.62,595.81 608.39,598.04 C605.23,600.23 597.71,607.04 585.97,618.35 C572.58,631.25 560.94,641.56 556.20,644.73 C554.17,646.09 551.60,648.22 550.50,649.46 C549.40,650.70 546.01,653.47 542.96,655.61 C539.91,657.75 535.09,661.51 532.25,663.97 C529.41,666.42 524.51,669.80 521.38,671.47 C518.02,673.25 515.57,675.26 515.41,676.34 C515.27,677.35 514.82,678.48 514.42,678.84 C514.01,679.20 513.96,678.71 514.31,677.75 C515.06,675.65 513.71,675.44 512.07,677.41 C510.09,679.80 491.70,692.61 486.45,695.26 C481.70,697.66 471.32,700.48 458.44,702.87 ZM 334.87 549.45 C331.67,552.15 329.45,552.59 327.00,551.00 C325.76,550.20 325.86,550.03 327.54,550.02 C329.20,550.00 328.60,548.97 324.25,544.37 C319.05,538.87 312.05,527.98 305.98,515.96 C304.32,512.68 302.49,510.00 301.91,510.00 C300.58,510.00 286.28,480.37 278.05,460.55 C274.63,452.33 271.20,445.13 270.42,444.55 C269.63,443.97 264.75,434.02 259.57,422.42 C250.09,401.23 244.98,391.47 239.98,385.00 C237.08,381.25 233.62,375.00 234.45,375.00 C234.72,375.00 235.64,376.34 236.49,377.97 C237.33,379.61 238.97,381.82 240.13,382.90 C243.12,385.69 244.52,383.88 244.42,377.37 C244.37,374.42 244.71,372.00 245.17,372.00 C245.63,372.00 246.00,371.55 246.00,371.00 C246.00,370.45 245.22,370.00 244.28,370.00 C242.90,370.00 243.02,369.68 244.88,368.37 C246.88,366.97 249.71,366.79 264.36,367.12 C273.79,367.33 281.73,367.13 282.00,366.68 C282.27,366.23 273.96,365.64 263.52,365.37 C253.08,365.10 244.35,364.68 244.11,364.44 C243.86,364.20 249.76,364.00 257.21,364.00 C269.81,364.00 270.85,363.86 272.13,361.92 C272.89,360.78 275.08,359.53 276.99,359.14 C280.23,358.47 280.52,358.09 281.29,353.53 C281.89,349.94 281.69,347.36 280.55,343.88 C278.64,338.03 278.63,337.44 280.42,338.93 C281.64,339.95 281.64,339.47 280.42,335.40 C278.26,328.22 278.57,325.79 281.93,323.54 C283.54,322.46 284.66,321.25 284.41,320.86 C284.17,320.46 285.21,319.95 286.73,319.72 C288.27,319.49 287.16,319.23 284.25,319.15 C280.99,319.06 279.00,319.42 279.00,320.11 C279.00,320.72 278.30,320.95 277.45,320.62 C276.52,320.26 276.15,320.44 276.53,321.06 C276.89,321.62 276.65,322.71 276.02,323.48 C275.14,324.54 275.15,325.43 276.08,327.19 C277.29,329.49 277.28,329.49 275.15,327.60 C272.45,325.20 272.45,323.97 275.19,320.49 L 277.38 317.71 L 296.19 318.27 L 315.00 318.84 L 314.99 315.17 C314.99,313.15 314.51,309.77 313.92,307.66 C313.33,305.54 313.05,303.61 313.30,303.37 C313.54,303.13 314.48,305.89 315.39,309.51 C317.04,316.06 321.00,324.85 321.00,321.95 C321.00,321.11 320.30,317.74 319.43,314.46 C318.57,311.18 317.66,306.94 317.41,305.03 C317.03,302.09 317.15,301.80 318.23,303.14 C318.93,304.01 320.29,304.99 321.25,305.33 C322.57,305.79 323.00,305.39 323.02,303.72 C323.03,301.92 323.21,301.78 324.00,303.00 C324.53,303.83 324.98,308.23 324.98,312.79 C324.99,317.35 325.42,325.22 325.94,330.29 C326.46,335.36 327.18,343.92 327.54,349.32 C327.90,354.72 328.41,358.92 328.68,358.66 C328.94,358.39 328.67,350.15 328.07,340.34 C327.95,338.36 327.83,336.51 327.73,334.77 C326.32,311.83 326.14,308.78 327.05,308.41 C327.19,308.35 327.35,308.36 327.54,308.36 C327.64,308.37 327.74,308.37 327.84,308.36 C328.75,308.33 330.62,308.00 332.00,307.64 C332.06,307.62 332.12,307.61 332.18,307.59 C333.28,307.30 334.14,307.07 334.82,307.33 C337.28,308.24 337.38,315.44 338.05,348.64 C338.89,390.12 339.77,407.74 341.05,408.53 C341.47,408.79 341.63,407.31 341.40,405.25 C340.50,396.83 339.00,350.85 339.00,331.30 C339.00,316.07 339.34,309.95 340.25,308.81 C341.26,307.54 344.71,307.11 358.00,306.60 C378.99,305.81 385.92,305.33 405.00,303.35 C416.97,302.11 435.32,301.65 485.50,301.34 C551.10,300.93 556.84,301.00 557.09,299.88 C557.11,299.77 557.08,299.65 557.05,299.52 C557.03,299.41 557.00,299.29 557.00,299.16 C557.00,295.87 558.17,299.13 558.97,304.64 C559.44,307.86 560.13,311.29 560.52,312.25 C561.11,313.74 560.62,314.00 557.20,314.00 C554.99,314.00 550.33,314.90 546.84,315.99 C537.57,318.90 522.54,321.56 496.00,324.97 C468.38,328.53 461.04,329.97 447.24,334.57 C414.96,345.32 389.28,366.49 375.73,393.52 C368.74,407.45 365.41,422.21 360.59,460.65 C355.55,500.85 343.60,542.11 334.87,549.45 ZM 382.62 623.47 C379.43,626.43 379.33,626.46 379.33,624.51 C379.33,623.70 380.16,622.77 381.17,622.45 C382.25,622.10 383.00,620.92 383.00,619.53 C383.00,614.67 393.48,602.10 403.07,595.45 C405.88,593.50 407.52,591.09 409.92,585.37 C411.66,581.24 413.48,575.75 413.97,573.18 C414.47,570.61 415.95,566.47 417.26,564.00 C418.58,561.53 420.14,558.08 420.74,556.35 C422.57,551.04 430.94,539.20 434.31,537.15 C438.88,534.37 447.00,533.53 454.09,535.10 C458.53,536.09 460.00,536.84 460.00,538.15 C460.00,539.10 459.55,540.16 459.00,540.50 C458.41,540.86 457.97,547.17 457.93,555.81 C457.89,563.89 457.46,571.40 456.97,572.50 C456.37,573.86 456.28,573.13 456.67,570.25 C457.06,567.42 456.88,566.00 456.13,566.00 C455.51,566.00 455.00,567.10 455.00,568.45 C455.00,571.45 453.03,576.00 451.73,576.00 C451.21,576.00 451.05,575.31 451.37,574.48 C451.87,573.18 451.62,573.14 449.73,574.19 C448.50,574.86 446.89,575.30 446.15,575.14 C445.41,574.99 445.09,575.34 445.45,575.92 C445.86,576.59 445.46,576.73 444.38,576.31 C443.04,575.80 442.80,576.04 443.31,577.38 C443.68,578.33 443.57,578.85 443.07,578.54 C442.57,578.23 440.78,579.65 439.10,581.69 C437.15,584.06 436.43,585.65 437.13,586.08 C437.91,586.56 437.90,586.94 437.11,587.43 C436.50,587.81 436.00,587.64 436.00,587.06 C436.00,584.66 434.23,586.31 431.62,591.14 C429.74,594.61 429.20,596.51 429.95,596.97 C430.66,597.41 430.06,598.58 428.28,600.26 C420.70,607.37 418.08,609.99 413.18,615.37 C410.26,618.58 407.64,620.97 407.36,620.69 C406.00,619.34 412.24,610.21 420.25,601.85 C424.94,596.95 426.24,594.59 423.69,595.56 C422.15,596.16 411.50,608.08 411.50,609.22 C411.50,609.65 411.12,609.95 410.65,609.89 C410.18,609.84 407.93,611.54 405.65,613.69 C401.19,617.89 395.29,620.99 391.72,621.02 C390.50,621.02 388.84,621.45 388.03,621.96 C387.10,622.55 386.33,622.53 385.95,621.92 C385.62,621.38 384.13,622.07 382.62,623.47 ZM 561.39 284.42 C560.88,285.74 558.75,286.00 548.19,286.00 C532.54,286.00 532.78,284.24 548.52,283.67 C554.56,283.46 546.90,283.39 531.50,283.53 C514.74,283.69 505.41,283.46 508.27,282.98 C514.83,281.85 552.75,279.84 556.77,280.40 C558.94,280.71 559.81,280.50 559.36,279.78 C558.90,279.03 551.95,278.89 536.60,279.31 C520.56,279.76 515.19,279.63 517.00,278.86 C521.21,277.07 527.11,276.61 533.26,277.61 C535.61,277.99 538.23,277.68 540.26,276.78 C542.57,275.75 546.41,275.43 553.64,275.65 C563.39,275.95 563.80,275.88 564.46,273.73 C564.86,272.39 565.34,272.00 565.65,272.74 C565.93,273.42 565.22,275.17 564.08,276.63 C562.94,278.08 562.00,280.07 562.00,281.05 C562.00,282.03 561.73,283.55 561.39,284.42 ZM 386.83 663.51 C379.31,671.75 372.20,679.62 371.02,681.00 C369.37,682.93 369.11,683.03 369.87,681.46 C370.79,679.55 373.31,676.67 390.00,658.55 C393.58,654.67 399.20,648.36 402.50,644.52 C405.80,640.69 410.33,635.52 412.56,633.03 C435.38,607.59 449.83,588.72 454.26,578.54 C456.01,574.54 456.02,574.53 455.40,577.90 C454.56,582.48 447.70,595.79 444.27,599.50 C442.74,601.15 439.47,604.97 437.01,608.00 C434.54,611.03 432.25,613.72 431.91,614.00 C431.56,614.28 428.87,617.42 425.91,621.00 C422.96,624.58 416.03,632.23 410.52,638.01 C405.01,643.79 394.35,655.27 386.83,663.51 ZM 530.00 416.02 C515.60,417.21 506.97,417.24 509.00,416.10 C509.83,415.63 524.45,414.50 541.50,413.59 C558.55,412.67 580.31,411.49 589.86,410.96 C606.39,410.05 624.21,409.83 621.00,410.58 C620.17,410.78 601.95,411.87 580.50,413.01 C559.05,414.15 536.33,415.50 530.00,416.02 ZM 295.27 408.33 C296.50,414.84 297.64,419.46 297.82,418.60 C298.00,417.74 297.45,413.54 296.61,409.27 C294.50,398.50 291.33,371.60 289.92,352.50 C288.64,335.09 287.17,328.12 287.07,339.00 C286.94,351.85 290.84,384.79 295.27,408.33 ZM 831.00 411.39 C831.00,414.06 829.23,414.06 828.56,411.39 L 827.91 408.79 L 812.11 409.15 C802.37,409.36 795.77,409.93 794.90,410.63 C794.13,411.25 791.47,411.68 789.00,411.58 C786.53,411.49 780.22,411.25 775.00,411.06 L 765.50 410.71 L 777.50 409.94 C784.10,409.51 797.15,408.62 806.50,407.96 C821.48,406.91 823.95,406.95 827.25,408.33 C829.31,409.19 831.00,410.57 831.00,411.39 ZM 270.26 442.16 C270.91,442.56 271.63,442.70 271.86,442.47 C272.94,441.40 250.06,395.00 248.46,395.00 C247.97,395.00 258.08,416.41 258.85,417.00 C259.21,417.27 259.57,418.17 259.67,419.00 C259.95,421.58 269.01,441.39 270.26,442.16 ZM 290.66 400.35 C291.67,406.32 292.65,410.46 292.84,409.54 C293.02,408.61 292.24,401.93 291.11,394.68 C289.97,387.43 288.56,376.10 287.98,369.50 C287.39,362.90 286.31,352.77 285.58,347.00 C283.69,332.05 283.64,341.95 285.52,359.40 C288.40,386.16 288.83,389.54 290.66,400.35 ZM 544.62 257.00 C535.07,257.00 525.73,257.24 523.88,257.53 C520.71,258.02 520.65,257.98 523.00,256.92 C526.55,255.32 562.00,254.35 562.00,255.86 C562.00,256.67 556.98,257.00 544.62,257.00 ZM 517.00 260.02 C516.17,260.54 515.28,260.91 515.00,260.84 C512.83,260.29 500.34,259.35 499.75,259.69 C499.34,259.92 499.00,259.60 499.00,258.96 C499.00,258.14 501.51,257.90 507.51,258.15 C514.75,258.45 515.94,258.28 515.46,257.00 C515.04,255.90 515.37,255.98 516.70,257.29 C518.27,258.84 518.31,259.19 517.00,260.02 ZM 328.54 321.83 C328.88,324.77 329.41,326.92 329.71,326.62 C330.54,325.80 330.08,312.68 329.20,311.80 C328.12,310.72 327.80,315.56 328.54,321.83 ZM 331.66 397.17 C332.23,404.23 332.60,406.08 332.83,403.00 C333.20,397.92 332.09,385.58 331.33,386.34 C331.05,386.61 331.20,391.49 331.66,397.17 ZM 329.57 373.90 C329.99,378.08 330.54,380.64 330.77,379.60 C331.01,378.55 330.86,374.27 330.43,370.10 C330.01,365.92 329.46,363.36 329.23,364.40 C328.99,365.45 329.14,369.73 329.57,373.90 ZM 666.50 537.57 C664.30,539.54 663.40,540.70 664.50,540.15 C665.60,539.59 668.75,537.05 671.50,534.49 C674.25,531.94 675.15,530.78 673.50,531.91 C671.85,533.05 668.70,535.59 666.50,537.57 ZM 524.50 261.00 C524.84,261.55 524.44,262.00 523.62,262.00 C522.79,262.00 521.84,261.55 521.50,261.00 C521.16,260.45 521.56,260.00 522.38,260.00 C523.21,260.00 524.16,260.45 524.50,261.00 ZM 643.13 564.25 C641.82,565.92 641.00,566.45 641.00,565.62 C641.00,565.41 641.79,564.63 642.75,563.87 C644.34,562.63 644.37,562.66 643.13,564.25 Z" fill="rgb(16,106,228)"/>
<path d="M 382.62 623.47 C384.13,622.07 385.62,621.38 385.95,621.92 C386.33,622.53 387.10,622.55 388.03,621.96 C388.84,621.45 390.50,621.02 391.72,621.02 C395.29,620.99 401.19,617.89 405.65,613.69 C407.93,611.54 410.18,609.84 410.65,609.89 C411.12,609.95 411.50,609.65 411.50,609.22 C411.50,608.08 422.15,596.16 423.69,595.56 C426.24,594.59 424.94,596.95 420.25,601.85 C412.24,610.21 406.00,619.34 407.36,620.69 C407.64,620.97 410.26,618.58 413.18,615.37 C418.08,609.99 420.70,607.37 428.28,600.26 C430.06,598.58 430.66,597.41 429.95,596.97 C429.20,596.51 429.74,594.61 431.62,591.14 C434.23,586.31 436.00,584.66 436.00,587.06 C436.00,587.64 436.50,587.81 437.11,587.43 C437.90,586.94 437.91,586.56 437.13,586.08 C436.43,585.65 437.15,584.06 439.10,581.69 C440.78,579.65 442.57,578.23 443.07,578.54 C443.57,578.85 443.68,578.33 443.31,577.38 C442.80,576.04 443.04,575.80 444.38,576.31 C445.46,576.73 445.86,576.59 445.45,575.92 C445.09,575.34 445.41,574.99 446.15,575.14 C446.89,575.30 448.50,574.86 449.73,574.19 C451.62,573.14 451.87,573.18 451.37,574.48 C451.05,575.31 451.21,576.00 451.73,576.00 C453.03,576.00 455.00,571.45 455.00,568.45 C455.00,567.10 455.51,566.00 456.13,566.00 C456.88,566.00 457.06,567.42 456.67,570.25 C456.28,573.13 456.37,573.86 456.97,572.50 C456.99,572.46 457.01,572.42 457.02,572.37 C456.67,575.31 456.23,577.40 455.69,578.81 C453.70,584.03 449.89,591.30 446.86,595.95 C450.37,590.47 454.74,581.50 455.40,577.90 C456.02,574.53 456.01,574.54 454.26,578.54 C452.19,583.30 447.94,589.94 441.67,598.27 C441.89,597.87 442.00,597.58 442.00,597.41 C442.00,597.00 442.75,595.83 443.66,594.82 C444.57,593.81 445.08,592.75 444.78,592.45 C444.49,592.15 441.62,594.97 438.40,598.71 C427.17,611.76 422.41,616.75 387.03,652.52 C350.97,688.97 332.13,706.85 326.92,709.54 C324.46,710.81 322.00,713.73 322.00,715.36 C322.00,715.63 322.79,716.03 323.75,716.24 C326.31,716.81 327.89,716.06 334.00,711.39 C339.38,707.28 362.70,683.63 368.35,676.57 C369.91,674.61 371.62,673.26 372.14,673.58 C373.90,674.67 409.12,637.12 428.87,614.28 C424.04,620.04 418.59,626.31 412.56,633.03 C410.33,635.52 405.80,640.69 402.50,644.52 C399.20,648.36 393.58,654.67 390.00,658.55 C373.31,676.67 370.79,679.55 369.87,681.46 C369.11,683.03 369.37,682.93 371.02,681.00 C372.20,679.62 379.31,671.75 386.83,663.51 C394.35,655.27 405.01,643.79 410.52,638.01 C411.84,636.62 413.25,635.13 414.66,633.61 C409.47,639.42 403.44,646.14 396.40,653.93 C363.24,690.65 336.86,716.96 326.14,724.01 C316.34,730.45 304.49,734.39 297.73,733.46 C292.94,732.80 290.87,731.50 288.97,727.94 C287.81,725.78 290.11,719.00 292.01,719.00 C292.62,719.00 292.87,718.60 292.56,718.10 C292.26,717.61 292.73,716.93 293.61,716.60 C294.52,716.25 294.96,715.34 294.64,714.49 C294.32,713.67 294.55,713.00 295.14,713.00 C295.73,713.00 295.96,712.34 295.65,711.53 C295.34,710.72 295.66,709.48 296.36,708.78 C297.07,708.08 297.69,707.28 297.75,707.00 C297.81,706.72 298.38,705.15 299.03,703.50 C299.67,701.85 300.26,699.49 300.35,698.25 C300.43,697.01 300.86,696.00 301.31,696.00 C301.75,696.00 301.81,695.50 301.43,694.89 C301.05,694.28 301.33,693.42 302.04,692.98 C302.75,692.54 303.33,690.79 303.33,689.09 C303.33,687.39 303.73,686.00 304.23,686.00 C304.72,686.00 304.81,685.50 304.43,684.89 C304.05,684.28 304.30,683.44 304.97,683.02 C305.64,682.60 306.26,680.96 306.34,679.38 C306.41,677.80 306.89,676.20 307.40,675.84 C307.92,675.47 308.33,673.79 308.33,672.09 C308.33,670.39 308.65,669.00 309.03,669.00 C309.84,669.00 312.86,659.68 313.24,656.00 C313.38,654.62 313.87,653.23 314.31,652.90 C314.76,652.57 315.17,650.89 315.21,649.15 C315.26,647.42 315.73,646.00 316.26,646.00 C316.78,646.00 316.93,645.25 316.57,644.33 C316.22,643.41 316.42,642.36 317.01,642.00 C317.60,641.63 318.17,640.02 318.29,638.42 C318.40,636.81 318.88,635.22 319.35,634.88 C319.81,634.54 320.26,633.08 320.35,631.63 C320.43,630.18 320.87,629.00 321.32,629.00 C321.77,629.00 321.85,628.10 321.50,627.00 C321.14,625.88 321.32,625.00 321.90,625.00 C322.47,625.00 322.68,624.33 322.36,623.50 C322.05,622.67 322.21,622.00 322.73,622.00 C323.85,622.00 326.13,615.03 325.40,613.84 C325.11,613.38 325.27,613.00 325.75,613.00 C326.71,613.00 329.54,603.23 329.16,601.25 C329.02,600.56 329.33,600.00 329.84,600.00 C330.35,600.00 331.00,598.99 331.28,597.75 C331.55,596.51 333.84,588.78 336.34,580.58 C338.85,572.37 340.67,565.28 340.39,564.83 C340.11,564.37 340.41,564.00 341.06,564.00 C341.74,564.00 342.01,563.16 341.71,562.00 C341.42,560.90 341.58,560.00 342.06,560.00 C342.54,560.00 342.68,559.33 342.36,558.50 C342.04,557.67 342.33,557.00 343.00,557.00 C343.67,557.00 343.97,556.35 343.66,555.56 C343.36,554.78 343.51,553.99 343.99,553.81 C344.47,553.64 345.00,552.15 345.18,550.50 C345.36,548.85 345.88,547.22 346.35,546.88 C346.81,546.54 347.26,545.08 347.35,543.63 C347.43,542.18 347.79,541.00 348.14,541.00 C348.94,541.00 350.48,534.12 350.22,531.75 C350.11,530.79 350.52,530.00 351.12,530.00 C351.72,530.00 351.95,529.33 351.64,528.50 C351.32,527.67 351.55,527.00 352.14,527.00 C352.73,527.00 352.97,526.35 352.66,525.56 C352.36,524.78 352.58,523.97 353.15,523.78 C353.72,523.59 354.26,522.22 354.34,520.72 C354.43,519.22 354.89,518.00 355.37,518.00 C355.84,518.00 356.00,517.10 355.71,516.00 C355.42,514.90 355.62,514.00 356.15,514.00 C356.68,514.00 356.84,513.55 356.50,513.00 C356.16,512.45 356.31,512.00 356.83,512.00 C357.75,512.00 359.51,505.79 359.32,503.25 C359.27,502.56 359.65,502.00 360.17,502.00 C360.69,502.00 360.81,501.50 360.43,500.89 C360.05,500.28 360.31,499.43 361.00,499.00 C361.69,498.58 362.25,497.05 362.25,495.61 C362.25,494.18 362.63,493.00 363.09,493.00 C363.56,493.00 363.68,492.33 363.36,491.50 C363.04,490.67 363.33,490.00 364.00,490.00 C364.67,490.00 364.96,489.33 364.64,488.50 C364.32,487.67 364.55,487.00 365.14,487.00 C365.73,487.00 365.95,486.33 365.64,485.50 C365.32,484.67 365.53,484.00 366.10,484.00 C366.68,484.00 366.86,483.12 366.50,482.00 C366.14,480.88 366.32,480.00 366.90,480.00 C367.47,480.00 367.68,479.33 367.36,478.50 C367.05,477.67 367.27,477.00 367.86,477.00 C368.45,477.00 368.68,476.33 368.36,475.50 C368.04,474.67 368.33,474.00 369.00,474.00 C369.67,474.00 369.96,473.33 369.64,472.50 C369.32,471.67 369.55,471.00 370.14,471.00 C370.73,471.00 370.95,470.33 370.64,469.50 C370.32,468.67 370.44,468.00 370.91,468.00 C371.37,468.00 371.75,466.82 371.75,465.39 C371.75,463.95 372.17,462.49 372.67,462.14 C373.18,461.79 373.66,460.42 373.75,459.09 C373.83,457.76 374.39,456.38 374.98,456.01 C375.58,455.64 375.78,454.59 375.43,453.67 C375.05,452.68 375.28,452.00 376.00,452.00 C376.67,452.00 376.96,451.33 376.64,450.50 C376.32,449.67 376.55,449.00 377.14,449.00 C377.73,449.00 377.95,448.33 377.64,447.50 C377.32,446.67 377.53,446.00 378.10,446.00 C378.68,446.00 378.86,445.12 378.50,444.00 C378.11,442.77 378.32,442.00 379.04,442.00 C379.69,442.00 379.95,441.33 379.64,440.50 C379.32,439.67 379.55,439.00 380.14,439.00 C380.73,439.00 380.95,438.33 380.64,437.50 C380.32,436.67 380.55,436.00 381.14,436.00 C381.73,436.00 381.95,435.33 381.64,434.50 C381.32,433.67 381.55,433.00 382.14,433.00 C382.73,433.00 382.95,432.33 382.64,431.50 C382.32,430.67 382.55,430.00 383.14,430.00 C383.73,430.00 383.97,429.35 383.66,428.56 C383.36,427.78 383.55,426.98 384.08,426.81 C384.61,426.63 385.15,425.03 385.27,423.24 C385.40,421.46 385.89,420.00 386.37,420.00 C386.84,420.00 387.00,419.10 386.71,418.00 C386.42,416.90 386.64,416.00 387.20,416.00 C387.76,416.00 387.93,415.25 387.57,414.33 C387.22,413.41 387.44,412.35 388.06,411.96 C388.69,411.58 389.26,410.08 389.35,408.63 C389.43,407.18 389.89,406.00 390.37,406.00 C390.84,406.00 391.00,405.10 390.71,404.00 C390.42,402.90 390.64,402.00 391.20,402.00 C391.76,402.00 391.95,401.33 391.64,400.50 C391.32,399.67 391.55,399.00 392.14,399.00 C392.73,399.00 392.95,398.33 392.64,397.50 C392.32,396.67 392.53,396.00 393.10,396.00 C393.68,396.00 393.86,395.12 393.50,394.00 C393.14,392.88 393.32,392.00 393.90,392.00 C394.47,392.00 394.68,391.33 394.36,390.50 C394.05,389.67 394.27,389.00 394.86,389.00 C395.45,389.00 395.70,388.38 395.41,387.63 C395.12,386.87 395.61,385.53 396.51,384.64 C397.40,383.74 397.85,382.56 397.50,382.01 C397.16,381.45 397.34,381.00 397.91,381.00 C398.47,381.00 398.68,380.33 398.36,379.50 C398.05,378.67 398.31,378.00 398.95,378.00 C399.59,378.00 399.84,377.55 399.50,377.00 C399.16,376.45 399.39,376.00 400.00,376.00 C400.61,376.00 400.84,375.55 400.50,375.00 C400.16,374.45 400.39,374.00 401.00,374.00 C401.61,374.00 401.84,373.55 401.50,373.00 C401.16,372.45 401.36,372.00 401.94,372.00 C402.52,372.00 402.89,371.60 402.75,371.12 C402.27,369.42 410.94,358.21 416.20,353.72 C422.07,348.71 438.76,339.69 440.74,340.45 C441.43,340.72 442.00,340.58 442.00,340.14 C442.00,339.00 448.90,337.02 450.59,337.67 C451.37,337.97 452.00,337.69 452.00,337.04 C452.00,336.32 452.77,336.11 454.00,336.50 C455.20,336.88 456.00,336.68 456.00,336.00 C456.00,335.32 456.80,335.12 458.00,335.50 C459.21,335.88 460.00,335.68 460.00,334.99 C460.00,334.23 461.03,334.07 463.00,334.50 C464.99,334.94 466.00,334.77 466.00,334.00 C466.00,333.23 467.01,333.06 469.00,333.50 C471.04,333.95 472.00,333.77 472.00,332.95 C472.00,332.15 473.00,331.95 475.00,332.35 C476.83,332.72 478.00,332.53 478.00,331.89 C478.00,331.20 479.42,331.06 482.00,331.50 C484.85,331.98 486.00,331.82 486.00,330.96 C486.00,330.12 487.10,329.92 489.48,330.30 C491.40,330.61 493.24,330.42 493.58,329.88 C493.92,329.32 495.53,329.18 497.22,329.55 C499.09,329.96 500.52,329.78 500.95,329.07 C501.35,328.43 504.77,327.84 508.83,327.72 C512.77,327.60 516.00,327.11 516.00,326.62 C516.00,326.14 517.80,326.03 520.00,326.38 C522.67,326.81 524.00,326.65 524.00,325.90 C524.00,325.16 525.19,325.00 527.50,325.43 C529.88,325.88 531.00,325.72 531.00,324.92 C531.00,324.11 532.24,323.94 535.00,324.38 C537.49,324.78 539.00,324.63 539.00,324.00 C539.00,323.43 540.24,323.03 541.75,323.11 C543.26,323.18 550.80,322.51 558.50,321.62 C578.66,319.27 596.52,317.37 630.00,313.99 C646.22,312.36 668.05,310.10 678.50,308.98 C699.67,306.71 714.73,305.22 717.00,305.16 C717.83,305.15 722.85,304.64 728.17,304.04 C733.48,303.44 738.21,303.03 738.67,303.13 C739.13,303.23 740.17,303.05 741.00,302.72 C743.85,301.58 773.31,298.91 776.15,299.53 C778.06,299.95 779.00,299.76 779.00,298.94 C779.00,298.08 780.30,297.91 783.50,298.34 C786.51,298.76 788.00,298.59 788.00,297.85 C788.00,296.06 802.04,297.37 806.59,299.59 C814.41,303.41 812.36,306.53 788.48,327.10 C740.15,368.75 702.91,395.26 682.00,402.88 C667.20,408.27 665.14,408.51 607.92,411.48 L 607.00 411.53 C615.18,411.05 620.56,410.69 621.00,410.58 C624.21,409.83 606.39,410.05 589.86,410.96 C580.31,411.49 558.55,412.67 541.50,413.59 C524.45,414.50 509.83,415.63 509.00,416.10 C506.97,417.24 515.60,417.21 530.00,416.02 C535.09,415.61 550.78,414.65 567.89,413.69 C530.03,415.92 501.05,418.04 495.64,419.07 C489.63,420.21 487.02,421.79 483.45,426.48 C477.90,433.75 476.07,445.94 479.99,449.49 C482.19,451.48 495.16,453.18 497.28,451.76 C497.95,451.31 501.54,451.23 505.25,451.57 C510.06,452.02 512.00,451.87 512.00,451.04 C512.00,450.26 514.50,449.91 519.75,449.95 C537.68,450.10 540.00,450.01 540.00,449.11 C540.00,448.21 542.10,448.11 562.25,448.08 C567.45,448.07 571.00,447.66 571.00,447.06 C571.00,446.41 574.33,446.27 580.35,446.67 C586.65,447.08 589.93,446.93 590.38,446.19 C590.83,445.46 593.88,445.30 599.53,445.70 C605.79,446.14 608.00,445.98 608.00,445.10 C608.00,444.20 610.17,444.07 616.50,444.59 C622.75,445.09 625.00,444.96 625.00,444.10 C625.00,443.22 627.95,443.09 636.50,443.61 C644.88,444.11 648.00,443.98 648.00,443.15 C648.00,441.52 659.28,441.67 663.32,443.36 C665.11,444.11 667.35,445.49 668.29,446.43 C669.90,448.05 670.00,447.99 670.00,445.52 C670.00,444.24 669.73,442.93 669.18,441.59 C669.27,441.80 669.36,442.01 669.45,442.22 C671.48,447.08 671.44,452.39 669.36,454.12 C667.89,455.34 667.79,455.23 668.45,453.17 C669.48,449.92 668.35,446.26 665.92,444.96 C663.90,443.87 663.89,443.90 665.60,446.51 C666.92,448.53 667.05,449.35 666.12,449.93 C665.45,450.34 664.76,451.99 664.60,453.59 C664.35,455.95 663.37,456.97 659.36,459.00 C656.65,460.38 652.42,462.81 649.96,464.42 C647.51,466.03 643.70,468.48 641.50,469.87 C636.17,473.23 630.95,478.12 631.59,479.15 C631.87,479.60 631.33,479.68 630.39,479.32 C629.18,478.85 628.90,479.03 629.44,479.90 C630.24,481.20 623.51,488.10 614.83,494.86 C612.27,496.86 605.34,502.55 599.44,507.50 C573.74,529.06 575.64,527.62 566.92,532.16 C562.67,534.37 551.87,535.66 514.00,538.47 C468.10,541.87 467.76,541.91 465.84,543.64 C464.30,545.04 464.00,546.87 463.99,554.90 C463.98,555.33 463.98,555.75 463.97,556.17 C463.81,548.84 461.82,542.56 459.76,543.24 C458.85,543.54 458.34,547.96 457.92,559.08 C457.90,559.58 457.88,560.06 457.86,560.54 C457.90,559.02 457.92,557.42 457.93,555.81 C457.97,547.17 458.41,540.86 459.00,540.50 C459.55,540.16 460.00,539.10 460.00,538.15 C460.00,536.84 458.53,536.09 454.09,535.10 C447.00,533.53 438.88,534.37 434.31,537.15 C430.94,539.20 422.57,551.04 420.74,556.35 C420.14,558.08 418.58,561.53 417.26,564.00 C415.95,566.47 414.47,570.61 413.97,573.18 C413.48,575.75 411.66,581.24 409.92,585.37 C407.52,591.09 405.88,593.50 403.07,595.45 C393.48,602.10 383.00,614.67 383.00,619.53 C383.00,620.92 382.25,622.10 381.17,622.45 C380.16,622.77 379.33,623.70 379.33,624.51 C379.33,626.46 379.43,626.43 382.62,623.47 ZM 458.44 702.87 C471.32,700.48 481.70,697.66 486.45,695.26 C491.70,692.61 510.09,679.80 512.07,677.41 C513.71,675.44 515.06,675.65 514.31,677.75 C513.96,678.71 514.01,679.20 514.42,678.84 C514.82,678.48 515.27,677.35 515.41,676.34 C515.57,675.26 518.02,673.25 521.38,671.47 C524.51,669.80 529.41,666.42 532.25,663.97 C535.09,661.51 539.91,657.75 542.96,655.61 C546.01,653.47 549.40,650.70 550.50,649.46 C551.60,648.22 554.17,646.09 556.20,644.73 C560.94,641.56 572.58,631.25 585.97,618.35 C597.71,607.04 605.23,600.23 608.39,598.04 C611.62,595.81 621.00,586.62 621.00,585.69 C621.00,584.91 612.70,592.18 596.40,607.25 C588.62,614.45 585.33,616.38 591.05,610.39 C594.78,606.50 625.86,578.21 634.09,571.23 C636.88,568.86 639.63,567.27 640.25,567.66 C641.02,568.13 640.81,568.70 639.61,569.43 C636.51,571.30 633.65,574.00 634.78,574.00 C635.37,574.00 636.53,573.33 637.36,572.50 C638.18,571.67 639.13,571.00 639.47,571.00 C640.17,571.00 646.18,565.69 652.96,559.08 C658.28,553.90 654.73,556.67 647.50,563.35 C642.02,568.41 641.47,568.67 640.67,566.59 C640.16,565.26 642.36,562.51 644.50,561.82 C645.05,561.64 645.39,561.16 645.25,560.75 C645.11,560.34 645.56,560.11 646.25,560.25 C646.94,560.39 647.39,559.95 647.26,559.29 C647.13,558.62 647.61,558.30 648.33,558.57 C649.06,558.85 652.40,556.04 655.99,552.09 C659.49,548.24 662.74,545.34 663.20,545.62 C663.67,545.91 663.93,545.72 663.77,545.20 C663.39,543.87 672.65,535.00 673.57,535.82 C673.98,536.20 674.04,536.01 673.69,535.40 C673.35,534.80 674.19,533.70 675.57,532.96 C676.94,532.23 677.85,531.06 677.59,530.36 C677.30,529.62 677.65,529.31 678.43,529.61 C679.18,529.90 683.20,526.73 687.69,522.31 C692.06,518.01 693.57,516.31 691.06,518.51 C680.21,528.06 680.04,527.82 690.43,517.57 C696.52,511.57 702.62,505.22 704.00,503.47 C705.38,501.72 709.90,496.06 714.05,490.90 C729.66,471.49 733.85,463.13 732.49,454.08 C731.55,447.83 730.19,445.53 722.54,437.27 C714.62,428.71 709.78,426.53 695.23,424.97 C689.88,424.40 683.75,423.40 681.61,422.76 C677.73,421.59 677.72,421.58 680.46,420.85 C681.96,420.45 687.99,419.85 693.85,419.51 C704.99,418.87 716.79,417.16 718.50,415.93 C719.70,415.06 736.92,413.30 753.50,412.34 C760.10,411.96 764.61,411.45 763.53,411.21 C762.22,410.92 755.22,411.12 745.26,411.64 C748.73,411.42 752.31,411.19 755.50,410.98 C785.47,409.02 802.37,407.96 812.27,407.58 C810.58,407.68 808.67,407.81 806.50,407.96 C797.15,408.62 784.10,409.51 777.50,409.94 L 765.50 410.71 L 775.00 411.06 C780.22,411.25 786.53,411.49 789.00,411.58 C791.47,411.68 794.13,411.25 794.90,410.63 C795.77,409.93 802.37,409.36 812.11,409.15 L 827.91 408.79 L 828.56 411.39 C828.94,412.89 829.67,413.55 830.23,413.36 C828.44,416.31 823.04,421.34 812.26,431.14 C803.59,439.02 786.58,454.92 774.47,466.48 C762.35,478.04 746.87,492.67 740.08,499.00 C733.28,505.33 723.61,514.55 718.59,519.50 C706.56,531.35 608.32,627.79 605.04,630.96 C574.67,660.35 496.95,730.88 485.21,739.69 C482.07,742.05 477.48,744.94 475.01,746.11 C468.03,749.41 460.55,749.62 454.50,746.67 C448.23,743.62 436.81,731.85 438.87,730.58 C439.42,730.24 441.27,731.98 442.97,734.45 C444.67,736.92 447.99,740.27 450.35,741.90 C454.19,744.54 455.38,744.83 461.57,744.68 C467.73,744.52 469.24,744.05 475.10,740.50 C483.75,735.26 493.46,726.94 514.17,707.02 C519.59,701.80 525.35,696.85 526.96,696.02 C528.57,695.18 535.20,689.52 541.70,683.44 C548.19,677.35 559.12,667.24 566.00,660.98 C572.88,654.71 579.63,648.44 581.02,647.04 C582.40,645.64 586.90,641.38 591.02,637.56 C595.13,633.75 621.45,608.09 649.50,580.55 C706.04,525.03 715.20,516.23 722.50,510.46 C725.25,508.28 742.81,491.43 761.53,473.00 C794.30,440.74 813.05,423.02 821.50,416.34 C823.70,414.60 825.28,412.97 825.00,412.71 C823.35,411.20 766.71,414.83 763.78,416.64 C761.91,417.79 765.44,418.97 770.79,418.98 C773.70,418.99 779.33,419.64 783.29,420.42 C787.26,421.19 792.19,422.11 794.25,422.46 C796.31,422.81 798.00,423.42 798.00,423.82 C798.00,425.17 794.72,429.44 788.59,436.10 C785.24,439.73 781.06,444.68 779.29,447.10 C773.99,454.37 727.94,500.17 689.46,536.43 C679.58,545.74 665.88,558.83 659.00,565.52 C652.12,572.21 641.53,582.36 635.46,588.09 C629.39,593.82 613.41,609.12 599.96,622.11 C586.51,635.09 573.70,647.24 571.51,649.11 C563.98,655.51 560.00,659.32 560.00,660.14 C560.00,661.06 553.27,667.43 547.39,672.06 C545.25,673.75 540.12,678.39 536.00,682.38 C524.65,693.34 498.27,717.00 497.40,717.00 C496.97,717.00 497.95,715.54 499.56,713.75 L 502.50 710.50 L 498.79 713.91 C496.75,715.78 495.27,717.63 495.50,718.01 C496.38,719.42 484.60,728.81 481.10,729.48 C478.13,730.05 476.87,730.98 477.56,732.09 C477.88,732.62 477.78,732.97 477.32,732.87 C476.87,732.77 474.83,733.44 472.78,734.35 C468.21,736.38 466.93,736.39 459.57,734.48 C455.21,733.34 452.23,731.66 447.88,727.90 C444.24,724.75 441.57,723.13 440.78,723.58 C440.07,723.99 439.81,723.98 440.19,723.55 C440.96,722.70 440.93,722.66 434.54,715.22 C432.05,712.32 429.22,708.72 428.26,707.22 C427.30,705.72 425.50,703.38 424.26,702.01 C423.02,700.64 422.00,699.14 422.00,698.66 C422.00,698.19 421.11,696.56 420.02,695.03 C418.94,693.51 415.32,686.91 411.98,680.38 C408.65,673.85 405.20,667.83 404.32,667.00 C402.64,665.43 402.68,665.77 404.79,670.97 C405.31,672.26 405.19,672.26 403.80,670.97 C402.92,670.16 402.41,669.16 402.66,668.75 C402.91,668.34 402.66,668.00 402.09,668.00 C401.53,668.00 401.32,667.33 401.64,666.50 C401.95,665.67 401.80,665.00 401.30,665.00 C400.80,665.00 400.29,663.26 400.16,661.13 C399.97,657.83 400.53,656.65 406.40,649.91 C403.30,653.60 401.00,656.80 401.00,657.52 C401.00,659.34 414.40,685.37 417.14,688.88 C419.70,692.17 419.49,691.39 415.92,684.47 L 412.84 678.50 L 416.92 682.45 C419.16,684.62 421.22,687.10 421.50,687.95 C422.00,689.48 425.78,692.39 432.87,696.71 C445.59,704.46 447.46,704.91 458.44,702.87 ZM 295.16 722.70 C295.68,723.32 296.00,723.71 296.39,723.84 C297.02,724.04 297.85,723.61 300.04,722.48 L 300.13 722.43 C302.48,721.22 303.84,721.10 306.12,721.89 C311.26,723.68 317.14,720.18 312.78,717.93 C304.18,713.49 304.14,711.42 312.02,683.50 C312.49,681.85 314.01,676.45 315.40,671.50 C316.79,666.55 319.48,658.60 321.36,653.84 C323.25,649.07 325.28,642.94 325.86,640.22 C326.90,635.37 340.32,594.59 353.57,556.00 C357.25,545.28 361.51,532.45 363.04,527.50 C364.56,522.55 367.91,512.65 370.48,505.50 C375.00,492.93 381.08,473.58 389.02,446.50 C394.21,428.79 407.53,390.07 408.89,388.71 C409.70,387.90 410.00,389.11 410.00,393.24 C410.00,396.34 409.55,399.16 409.00,399.50 C407.74,400.28 407.68,405.00 408.93,405.00 C409.45,405.00 410.15,404.21 410.49,403.25 C410.83,402.29 413.00,399.80 415.31,397.71 C419.31,394.10 422.57,390.89 436.79,376.54 C445.34,367.91 451.88,363.61 463.59,358.91 C483.38,350.96 501.80,347.57 545.00,343.94 C557.94,342.85 572.83,340.83 581.50,338.99 C584.25,338.41 594.60,337.73 604.50,337.48 C614.40,337.22 631.28,336.05 642.00,334.87 C668.52,331.95 706.13,331.17 712.68,333.41 C715.25,334.28 718.66,335.00 720.25,335.00 C721.84,335.00 725.15,336.17 727.59,337.61 C734.75,341.80 735.86,345.84 731.11,350.39 C729.41,352.02 728.41,353.86 728.68,354.87 C729.18,356.78 719.11,367.00 716.73,367.00 C715.35,367.00 707.71,373.35 701.30,379.81 C699.40,381.73 697.52,382.82 696.85,382.41 C696.16,381.98 695.96,382.13 696.36,382.77 C696.72,383.36 695.89,384.73 694.51,385.82 C690.89,388.66 676.12,395.66 672.00,396.48 C670.08,396.87 666.47,397.87 664.00,398.70 C660.69,399.82 655.41,400.20 644.00,400.15 C625.92,400.05 610.85,401.03 615.50,401.98 C617.15,402.32 607.47,402.96 594.00,403.39 C579.94,403.84 566.73,404.77 563.00,405.58 C556.59,406.95 556.70,406.97 571.00,406.49 C578.97,406.23 594.72,405.55 606.00,405.00 C617.28,404.44 635.50,403.81 646.50,403.59 C657.98,403.37 668.20,402.69 670.50,402.00 C678.18,399.69 696.58,390.16 706.00,383.60 C711.22,379.96 719.78,374.09 725.02,370.55 C733.57,364.77 744.76,355.71 741.00,357.62 C739.70,358.28 739.68,358.16 740.91,356.65 C741.69,355.69 742.83,355.10 743.45,355.34 C744.89,355.90 748.50,353.30 748.50,351.71 C748.50,351.04 749.46,350.36 750.63,350.20 C753.01,349.86 761.41,343.08 760.54,342.21 C759.80,341.47 764.04,336.99 765.42,337.04 C766.02,337.06 765.15,338.18 763.50,339.53 C761.85,340.88 760.87,341.99 761.32,342.00 C762.94,342.00 772.91,332.66 772.31,331.69 C771.97,331.14 772.15,330.97 772.71,331.32 C773.27,331.67 774.58,330.96 775.62,329.74 C777.48,327.56 777.47,327.55 775.50,328.96 C774.40,329.75 775.96,327.83 778.97,324.70 C783.91,319.54 787.23,317.20 785.40,320.15 C784.66,321.35 786.23,320.67 788.80,318.68 C789.86,317.86 789.86,317.52 788.80,316.82 C787.80,316.16 788.03,315.51 789.80,314.03 C791.06,312.97 792.68,312.32 793.39,312.60 C794.10,312.87 795.31,312.31 796.09,311.35 C797.00,310.23 797.06,309.88 796.25,310.37 C794.43,311.46 794.72,310.47 796.69,308.87 C797.84,307.94 798.14,307.90 797.63,308.75 C796.44,310.73 798.80,310.20 801.00,308.00 C803.62,305.38 803.53,303.33 800.75,302.33 C795.93,300.61 774.96,302.03 741.00,306.37 C734.67,307.18 725.67,308.13 721.00,308.48 C711.67,309.17 697.89,310.53 685.50,311.96 C665.18,314.32 649.88,315.94 643.00,316.47 C609.76,319.00 597.69,320.08 592.50,320.99 C589.20,321.57 576.83,323.18 565.00,324.56 C537.89,327.74 482.88,334.58 473.05,335.98 C458.32,338.09 443.66,342.20 434.54,346.76 C423.05,352.52 411.51,363.58 406.05,374.05 C403.48,379.00 398.67,393.86 397.34,400.95 C397.09,402.30 394.24,411.53 391.00,421.45 C387.77,431.38 384.39,441.98 383.50,445.00 C382.60,448.02 379.48,457.48 376.56,466.00 C353.80,532.41 340.70,573.30 337.17,589.00 C334.79,599.55 328.21,620.17 327.62,618.89 C327.27,618.13 327.22,618.71 327.50,620.19 C327.78,621.67 327.55,623.16 326.99,623.51 C325.46,624.45 323.19,630.40 320.91,639.43 C319.07,646.71 314.44,661.63 301.49,702.00 C299.11,709.42 296.47,716.83 295.62,718.45 C294.50,720.60 294.38,721.75 295.16,722.70 ZM 517.00 260.02 C518.31,259.19 518.27,258.84 516.70,257.29 C515.37,255.98 515.04,255.90 515.46,257.00 C515.94,258.28 514.75,258.45 507.51,258.15 C503.27,257.97 500.77,258.04 499.67,258.38 C501.24,257.24 502.93,257.00 507.14,257.00 C512.23,257.00 513.81,256.59 515.77,254.75 C518.13,252.53 518.48,252.50 542.33,252.74 C555.62,252.88 566.80,252.99 567.17,252.99 C567.54,253.00 568.77,254.52 569.92,256.37 C572.89,261.18 572.60,265.46 568.98,270.02 C561.90,278.97 557.44,294.08 558.91,304.18 C559.41,307.66 560.14,311.29 560.52,312.25 C560.13,311.29 559.44,307.86 558.97,304.64 C558.17,299.13 557.00,295.87 557.00,299.16 C557.00,299.29 557.03,299.41 557.05,299.52 C557.08,299.65 557.11,299.77 557.09,299.88 C556.84,301.00 551.10,300.93 485.50,301.34 C435.32,301.65 416.97,302.11 405.00,303.35 C385.92,305.33 378.99,305.81 358.00,306.60 C344.71,307.11 341.26,307.54 340.25,308.81 C339.34,309.95 339.00,316.07 339.00,331.30 C339.00,350.85 340.50,396.83 341.40,405.25 C341.63,407.31 341.47,408.79 341.05,408.53 C339.77,407.74 338.89,390.12 338.05,348.64 C337.38,315.44 337.28,308.24 334.82,307.33 C334.14,307.07 333.28,307.30 332.18,307.59 C332.12,307.61 332.06,307.62 332.00,307.64 C330.62,308.00 328.75,308.33 327.84,308.36 C327.74,308.37 327.64,308.37 327.54,308.36 L 327.54 308.36 C327.35,308.36 327.19,308.35 327.05,308.41 C326.14,308.78 326.32,311.83 327.73,334.77 C327.83,336.51 327.95,338.36 328.07,340.34 C328.67,350.15 328.94,358.39 328.68,358.66 C328.41,358.92 327.90,354.72 327.54,349.32 C327.18,343.92 326.46,335.36 325.94,330.29 C325.42,325.22 324.99,317.35 324.98,312.79 C324.98,308.23 324.53,303.83 324.00,303.00 C323.21,301.78 323.03,301.92 323.02,303.72 C323.00,305.39 322.57,305.79 321.25,305.33 C320.29,304.99 318.93,304.01 318.23,303.14 C317.15,301.80 317.03,302.09 317.41,305.03 C317.66,306.94 318.57,311.18 319.43,314.46 C320.30,317.74 321.00,321.11 321.00,321.95 C321.00,324.85 317.04,316.06 315.39,309.51 C314.48,305.89 313.54,303.13 313.30,303.37 C313.05,303.61 313.33,305.54 313.92,307.66 C314.51,309.77 314.99,313.15 314.99,315.17 L 315.00 317.99 C314.97,317.39 314.29,313.18 313.46,308.46 C312.53,303.11 312.20,297.86 312.62,295.08 C312.99,292.56 313.12,290.49 312.90,290.48 C312.05,290.43 316.61,286.21 318.68,285.14 C321.47,283.69 350.00,283.56 350.00,285.00 C350.00,285.66 375.49,286.00 424.48,286.00 L 498.96 286.00 L 499.44 283.75 C500.17,280.30 499.64,273.00 498.66,273.00 C498.18,273.00 498.05,272.33 498.36,271.50 C498.68,270.67 498.47,270.00 497.90,270.00 C497.32,270.00 497.14,269.12 497.50,268.00 C497.86,266.85 497.68,266.00 497.07,266.00 C495.11,266.00 495.97,261.94 498.45,259.45 C498.64,259.27 498.82,259.09 499.00,258.93 C499.00,258.94 499.00,258.95 499.00,258.96 C499.00,259.60 499.34,259.92 499.75,259.69 C500.34,259.35 512.83,260.29 515.00,260.84 C515.28,260.91 516.17,260.54 517.00,260.02 ZM 463.50 530.40 C464.60,531.24 466.62,531.90 468.00,531.85 C470.04,531.78 470.13,531.68 468.50,531.29 C464.11,530.23 464.53,528.80 469.00,529.58 C475.26,530.67 514.70,530.34 530.45,529.06 C547.47,527.69 560.24,526.05 566.71,524.44 C571.89,523.14 584.00,515.80 584.00,513.96 C584.00,512.56 583.55,512.69 576.87,516.07 C573.53,517.75 570.64,518.97 570.45,518.78 C570.25,518.59 573.52,516.42 577.70,513.97 C581.89,511.51 592.37,503.61 601.01,496.41 C625.78,475.77 643.68,462.42 656.75,454.85 C660.74,452.53 664.00,450.29 664.00,449.86 C664.00,446.66 646.97,446.76 639.50,450.00 C636.77,451.19 631.54,451.93 623.00,452.34 C616.12,452.67 605.10,453.41 598.50,453.98 C591.90,454.55 580.42,455.51 573.00,456.10 C557.24,457.36 556.48,457.42 527.00,459.97 C497.01,462.57 475.20,464.01 465.75,464.00 C461.25,464.00 458.00,464.42 458.00,465.00 C458.00,466.53 478.06,465.94 525.00,463.04 C553.50,461.29 565.80,461.07 562.56,462.40 C560.30,463.32 560.02,463.76 561.12,464.62 C563.58,466.55 574.19,468.09 589.25,468.70 C603.23,469.27 607.37,470.25 601.25,471.54 C597.20,472.40 584.91,477.25 585.45,477.78 C585.70,478.03 585.25,478.90 584.44,479.70 C582.48,481.66 583.28,482.64 587.49,483.43 C589.42,483.79 591.00,484.66 591.00,485.36 C591.00,486.74 583.02,494.49 580.85,495.22 C579.72,495.60 579.73,495.95 580.87,497.34 C582.09,498.81 581.95,499.00 579.67,499.00 C576.77,499.00 568.00,504.51 568.00,506.33 C568.00,506.98 565.04,508.58 561.41,509.88 C556.05,511.80 554.92,512.58 555.31,514.08 C556.02,516.79 549.08,519.79 539.44,520.95 C516.98,523.65 512.16,524.00 497.68,524.00 C487.89,524.00 482.00,524.38 482.00,525.00 C482.00,526.25 468.01,526.34 464.78,525.11 C461.77,523.96 457.50,526.54 460.00,527.99 C460.83,528.47 462.40,529.55 463.50,530.40 ZM 465.93 773.43 C463.02,774.29 457.44,775.00 453.52,775.00 C447.11,775.00 445.87,774.65 440.95,771.53 C437.95,769.61 435.75,768.04 436.07,768.03 C436.38,768.01 434.53,765.82 431.97,763.16 C425.02,755.95 410.24,724.49 408.76,713.78 C408.59,712.53 408.18,711.05 407.86,710.50 C406.83,708.74 403.74,694.92 404.27,694.40 C404.55,694.12 405.77,697.18 406.99,701.20 C412.08,717.98 423.46,743.68 429.63,752.31 C439.41,765.99 444.73,769.38 455.59,768.84 C461.96,768.51 464.09,767.85 472.68,763.48 C483.10,758.18 499.73,747.36 519.73,732.87 C526.45,727.99 532.17,724.00 532.43,724.00 C532.69,724.00 534.11,722.88 535.59,721.51 C537.06,720.14 542.60,715.79 547.89,711.85 C562.21,701.17 564.00,699.29 564.00,694.91 C564.00,692.47 563.47,691.01 562.43,690.61 C561.02,690.07 561.02,689.84 562.35,688.50 C563.18,687.68 564.54,687.00 565.38,687.00 C566.22,687.00 567.36,686.21 567.92,685.25 C568.49,684.28 568.95,684.06 568.97,684.75 C568.99,685.44 570.12,686.00 571.50,686.00 C572.88,686.00 574.00,686.47 574.00,687.05 C574.00,688.55 579.07,684.54 598.46,667.73 C607.83,659.60 616.41,652.18 617.53,651.23 C618.65,650.28 620.23,648.59 621.03,647.48 C621.84,646.37 624.53,643.90 627.00,642.00 C629.47,640.09 639.40,631.78 649.06,623.52 C668.88,606.57 679.70,597.65 681.00,597.19 C681.49,597.01 683.83,595.10 686.19,592.94 C688.56,590.77 690.94,589.00 691.48,589.00 C692.76,589.00 691.83,589.86 661.52,616.59 C647.23,629.19 633.50,641.41 631.02,643.75 C626.71,647.81 605.30,665.92 585.78,682.02 C580.77,686.15 575.95,690.98 575.08,692.74 C574.21,694.51 572.94,695.96 572.26,695.98 C571.58,695.99 570.48,696.86 569.83,697.90 C569.18,698.95 568.03,699.56 567.28,699.28 C566.50,698.98 563.04,701.48 559.19,705.13 C555.49,708.63 546.24,716.67 538.64,723.00 C531.04,729.33 523.63,735.53 522.16,736.80 C520.70,738.06 514.33,743.06 508.00,747.91 C489.32,762.22 475.56,770.57 465.93,773.43 ZM 561.39 284.42 C561.73,283.55 562.00,282.03 562.00,281.05 C562.00,280.07 562.94,278.08 564.08,276.63 C565.22,275.17 565.93,273.42 565.65,272.74 C565.34,272.00 564.86,272.39 564.46,273.73 C563.80,275.88 563.39,275.95 553.64,275.65 C546.41,275.43 542.57,275.75 540.26,276.78 C538.23,277.68 535.61,277.99 533.26,277.61 C527.11,276.61 521.21,277.07 517.00,278.86 C515.19,279.63 520.56,279.76 536.60,279.31 C551.95,278.89 558.90,279.03 559.36,279.78 C559.81,280.50 558.94,280.71 556.77,280.40 C552.75,279.84 514.83,281.85 508.27,282.98 C505.41,283.46 514.74,283.69 531.50,283.53 C546.90,283.39 554.56,283.46 548.52,283.67 C532.78,284.24 532.54,286.00 548.19,286.00 C558.75,286.00 560.88,285.74 561.39,284.42 ZM 253.50 364.00 C268.62,364.00 270.59,363.91 271.84,362.34 C270.62,363.88 268.84,364.00 257.21,364.00 C249.76,364.00 243.86,364.20 244.11,364.44 C244.35,364.68 253.08,365.10 263.52,365.37 C273.96,365.64 282.27,366.23 282.00,366.68 C281.73,367.13 273.79,367.33 264.36,367.12 C249.71,366.79 246.88,366.97 244.88,368.37 C243.02,369.68 242.90,370.00 244.28,370.00 C245.22,370.00 246.00,370.45 246.00,371.00 C246.00,371.55 245.63,372.00 245.17,372.00 C244.71,372.00 244.37,374.42 244.42,377.37 C244.52,383.88 243.12,385.69 240.13,382.90 C238.97,381.82 237.33,379.61 236.49,377.97 C235.64,376.34 234.72,375.00 234.45,375.00 C233.62,375.00 237.08,381.25 239.98,385.00 C241.49,386.96 243.01,389.22 244.66,392.00 C243.09,389.45 241.20,386.80 239.99,385.50 C234.66,379.77 230.95,370.00 234.11,370.00 C234.72,370.00 234.93,369.27 234.59,368.37 C233.12,364.55 235.50,364.00 253.50,364.00 ZM 771.71 544.57 C770.30,544.52 769.41,545.31 768.95,547.00 C768.33,549.35 768.26,549.29 767.89,546.15 L 767.50 542.80 L 764.62 545.07 C761.84,547.27 761.78,547.27 762.87,545.25 C764.77,541.69 763.30,540.01 758.14,539.88 C755.59,539.82 754.40,539.58 755.50,539.35 C756.60,539.11 758.53,538.70 759.79,538.43 C761.04,538.16 762.49,536.83 763.01,535.47 C763.58,533.97 764.74,533.00 765.98,533.00 C767.38,533.00 768.02,532.32 768.08,530.75 C768.15,528.71 768.25,528.76 769.16,531.25 C770.32,534.41 771.58,534.69 774.17,532.35 C776.34,530.38 776.54,531.70 774.49,534.42 C772.55,536.97 774.21,538.97 778.37,539.10 L 781.50 539.20 L 778.41 539.94 C774.26,540.93 772.77,541.96 773.33,543.42 C773.61,544.15 772.96,544.61 771.71,544.57 ZM 449.00 771.00 C450.92,771.41 453.49,771.80 454.70,771.87 C459.21,772.14 474.13,767.22 475.49,765.02 C475.84,764.46 477.02,764.00 478.13,764.00 C480.09,764.00 489.17,758.42 489.83,756.81 C490.02,756.36 490.59,756.00 491.11,756.00 C492.28,756.00 500.38,750.46 506.28,745.63 C508.71,743.63 511.20,742.00 511.80,742.00 C512.40,742.00 513.47,741.18 514.19,740.18 C514.91,739.18 518.35,736.44 521.83,734.09 C525.31,731.74 527.92,729.59 527.63,729.30 C527.35,729.02 523.46,731.42 518.99,734.64 C505.41,744.44 483.86,758.91 477.40,762.56 C468.44,767.62 460.71,769.98 452.59,770.13 C446.85,770.24 446.16,770.40 449.00,771.00 ZM 295.27 408.33 C290.84,384.79 286.94,351.85 287.07,339.00 C287.17,328.12 288.64,335.09 289.92,352.50 C291.33,371.60 294.50,398.50 296.61,409.27 C297.45,413.54 298.00,417.74 297.82,418.60 C297.64,419.46 296.50,414.84 295.27,408.33 ZM 408.29 242.20 C406.80,242.91 405.27,244.62 404.89,246.00 C404.41,247.75 404.17,247.95 404.10,246.66 C404.04,245.64 403.11,244.58 402.01,244.29 C400.92,244.01 400.31,243.31 400.66,242.75 C401.00,242.19 400.28,240.96 399.04,240.03 L 396.79 238.33 L 399.82 237.07 C402.27,236.06 403.00,235.01 403.63,231.66 L 404.40 227.50 L 404.98 231.00 C405.31,232.99 406.09,234.39 406.78,234.25 C407.45,234.11 408.00,234.45 408.00,235.00 C408.00,235.55 408.67,236.00 409.50,236.00 C412.22,236.00 411.29,240.75 408.29,242.20 ZM 273.59 322.84 C272.64,324.70 273.16,325.83 275.15,327.60 C277.28,329.49 277.29,329.49 276.08,327.19 C275.15,325.43 275.14,324.54 276.02,323.48 C276.65,322.71 276.89,321.62 276.53,321.06 C276.15,320.44 276.52,320.26 277.45,320.62 C278.30,320.95 279.00,320.72 279.00,320.11 C279.00,319.42 280.99,319.06 284.25,319.15 C287.16,319.23 288.27,319.49 286.73,319.72 C285.21,319.95 284.17,320.46 284.41,320.86 C284.66,321.25 283.54,322.46 281.93,323.54 C278.57,325.79 278.26,328.22 280.42,335.40 C281.64,339.47 281.64,339.95 280.42,338.93 C278.63,337.44 278.64,338.03 280.55,343.88 C280.70,344.31 280.82,344.73 280.94,345.14 C280.40,343.56 279.54,342.16 278.35,340.90 C276.83,339.28 275.78,336.82 275.58,334.40 C275.40,332.25 274.65,329.05 273.92,327.27 C273.01,325.08 272.82,324.20 273.59,322.84 ZM 739.37 588.35 C738.02,589.81 736.37,590.95 735.71,590.88 C732.63,590.59 731.00,589.74 731.00,588.43 C731.00,587.51 729.93,587.00 728.00,587.00 C726.35,587.00 725.00,586.55 725.00,586.00 C725.00,585.45 726.38,585.00 728.07,585.00 C730.68,585.00 731.04,584.70 730.50,583.00 C729.98,581.35 730.32,581.00 732.43,581.00 C734.39,581.00 735.03,580.47 735.12,578.75 C735.20,577.06 735.35,576.93 735.69,578.25 C735.94,579.21 736.79,580.00 737.57,580.00 C738.36,580.00 739.00,580.67 739.00,581.50 C739.00,582.33 739.40,583.00 739.89,583.00 C741.94,583.00 741.66,585.89 739.37,588.35 ZM 270.26 442.16 C269.01,441.39 259.95,421.58 259.67,419.00 C259.57,418.17 259.21,417.27 258.85,417.00 C258.08,416.41 247.97,395.00 248.46,395.00 C250.06,395.00 272.94,441.40 271.86,442.47 C271.63,442.70 270.91,442.56 270.26,442.16 ZM 290.66 400.35 C288.83,389.54 288.40,386.16 285.52,359.40 C283.64,341.95 283.69,332.05 285.58,347.00 C286.31,352.77 287.39,362.90 287.98,369.50 C288.56,376.10 289.97,387.43 291.11,394.68 C292.24,401.93 293.02,408.61 292.84,409.54 C292.65,410.46 291.67,406.32 290.66,400.35 ZM 264.00 557.94 C264.00,560.38 260.33,557.59 259.95,554.87 C259.48,551.46 260.05,549.80 261.50,550.36 C262.47,550.73 263.01,550.33 263.03,549.22 C263.06,547.61 263.15,547.61 264.39,549.25 C265.12,550.21 266.20,551.00 266.79,551.00 C267.38,551.00 268.15,551.90 268.50,553.00 C269.21,555.23 266.65,558.52 265.01,557.50 C264.45,557.16 264.00,557.36 264.00,557.94 ZM 544.62 257.00 C556.98,257.00 562.00,256.67 562.00,255.86 C562.00,254.35 526.55,255.32 523.00,256.92 C520.65,257.98 520.71,258.02 523.88,257.53 C525.73,257.24 535.07,257.00 544.62,257.00 ZM 313.31 529.21 C317.22,535.63 321.07,541.01 324.25,544.37 C328.60,548.97 329.20,550.00 327.54,550.02 C325.86,550.03 325.76,550.20 327.00,551.00 C327.40,551.26 327.79,551.46 328.19,551.61 C327.55,551.46 326.87,551.22 326.09,550.91 C323.05,549.70 321.07,547.13 321.03,544.34 C321.01,543.16 318.33,537.68 315.06,532.18 C314.49,531.23 313.91,530.23 313.31,529.21 ZM 316.56 298.67 C319.07,300.51 319.17,300.43 318.81,296.78 C318.54,293.97 318.95,293.33 322.00,291.78 C325.43,290.05 325.44,290.02 322.50,290.64 C316.87,291.83 313.48,296.41 316.56,298.67 ZM 328.54 321.83 C327.80,315.56 328.12,310.72 329.20,311.80 C330.08,312.68 330.54,325.80 329.71,326.62 C329.41,326.92 328.88,324.77 328.54,321.83 ZM 236.39 373.58 C237.18,375.64 237.67,375.37 239.43,371.85 L 239.43 371.84 C240.62,369.45 241.07,368.55 240.81,368.21 C240.65,368.00 240.22,368.00 239.54,368.00 L 239.54 368.00 C237.72,368.00 235.66,371.66 236.39,373.58 ZM 331.66 397.17 C331.20,391.49 331.05,386.61 331.33,386.34 C332.09,385.58 333.20,397.92 332.83,403.00 C332.60,406.08 332.23,404.23 331.66,397.17 ZM 246.38 395.01 C249.83,401.24 253.92,409.80 259.57,422.42 C264.75,434.02 269.63,443.97 270.42,444.55 C271.20,445.13 274.63,452.32 278.04,460.53 C274.62,452.30 271.01,444.99 270.01,444.29 C269.01,443.60 266.83,439.76 265.17,435.76 C260.39,424.33 250.19,402.22 246.38,395.01 ZM 329.57 373.90 C329.14,369.73 328.99,365.45 329.23,364.40 C329.46,363.36 330.01,365.92 330.43,370.10 C330.86,374.27 331.01,378.55 330.77,379.60 C330.54,380.64 329.99,378.08 329.57,373.90 ZM 666.50 537.57 C668.70,535.59 671.85,533.05 673.50,531.91 C675.15,530.78 674.25,531.94 671.50,534.49 C668.75,537.05 665.60,539.59 664.50,540.15 C663.40,540.70 664.30,539.54 666.50,537.57 ZM 550.77 290.83 C549.88,291.72 550.42,291.98 553.05,291.93 C556.29,291.87 556.36,291.80 554.22,290.76 C552.53,289.95 551.63,289.97 550.77,290.83 ZM 544.00 291.00 C544.00,291.55 544.90,292.00 546.00,292.00 C547.10,292.00 548.00,291.55 548.00,291.00 C548.00,290.45 547.10,290.00 546.00,290.00 C544.90,290.00 544.00,290.45 544.00,291.00 ZM 377.52 668.00 C376.98,669.35 372.00,673.61 372.00,672.73 C372.00,672.54 373.38,671.05 375.06,669.44 C376.75,667.82 377.85,667.18 377.52,668.00 ZM 483.40 726.15 C481.51,728.28 481.51,728.28 483.75,727.11 C484.99,726.46 486.00,725.50 486.00,724.96 C486.00,723.54 485.52,723.76 483.40,726.15 ZM 524.50 261.00 C524.16,260.45 523.21,260.00 522.38,260.00 C521.56,260.00 521.16,260.45 521.50,261.00 C521.84,261.55 522.79,262.00 523.62,262.00 C524.44,262.00 524.84,261.55 524.50,261.00 ZM 758.13 344.34 C757.37,345.25 756.36,346.00 755.88,346.00 C754.35,346.00 754.92,345.11 757.25,343.87 C759.29,342.78 759.37,342.83 758.13,344.34 ZM 712.55 413.68 C687.05,415.47 659.75,417.77 650.69,419.16 L 644.00 420.18 L 650.66 419.14 C659.56,417.74 684.61,415.56 712.55,413.68 ZM 787.50 318.00 C787.16,318.55 786.68,319.00 786.44,319.00 C786.20,319.00 786.00,318.55 786.00,318.00 C786.00,317.45 786.48,317.00 787.06,317.00 C787.64,317.00 787.84,317.45 787.50,318.00 ZM 315.00 318.03 L 315.00 318.84 L 306.66 318.59 C311.63,318.49 314.93,318.29 315.00,318.03 ZM 643.13 564.25 C644.37,562.66 644.34,562.63 642.75,563.87 C641.79,564.63 641.00,565.41 641.00,565.62 C641.00,566.45 641.82,565.92 643.13,564.25 ZM 460.92 576.06 C458.56,583.46 454.76,590.48 449.23,597.90 C454.61,590.67 458.49,583.43 460.92,576.06 ZM 431.87 614.03 C430.61,615.50 429.24,617.08 427.77,618.76 C429.84,616.30 431.50,614.37 431.87,614.03 ZM 645.95 421.56 L 643.83 420.21 L 643.87 420.20 ZM 334.87 549.45 C333.74,550.41 332.79,551.06 331.87,551.44 C332.79,551.04 333.77,550.38 334.87,549.45 ZM 280.10 357.74 C279.53,358.53 278.65,358.80 276.99,359.14 C276.99,359.14 276.99,359.14 276.99,359.14 C278.64,358.80 279.53,358.51 280.10,357.74 ZM 276.75 318.50 L 276.57 318.74 L 276.74 318.50 Z" fill="rgb(104,228,250)"/>
<path d="M 0.00 512.00 L 0.00 0.00 L 512.00 0.00 L 1024.00 0.00 L 1024.00 512.00 L 1024.00 1024.00 L 512.00 1024.00 L 0.00 1024.00 L 0.00 512.00 ZM 465.93 773.43 C475.56,770.57 489.32,762.22 508.00,747.91 C514.33,743.06 520.70,738.06 522.16,736.80 C523.63,735.53 531.04,729.33 538.64,723.00 C546.24,716.67 555.49,708.63 559.19,705.13 C563.04,701.48 566.50,698.98 567.28,699.28 C568.03,699.56 569.18,698.95 569.83,697.90 C570.48,696.86 571.58,695.99 572.26,695.98 C572.94,695.96 574.21,694.51 575.08,692.74 C575.95,690.98 580.77,686.15 585.78,682.02 C605.30,665.92 626.71,647.81 631.02,643.75 C633.50,641.41 647.23,629.19 661.52,616.59 C691.83,589.86 692.76,589.00 691.48,589.00 C690.94,589.00 688.56,590.77 686.19,592.94 C683.83,595.10 681.49,597.01 681.00,597.19 C679.70,597.65 668.88,606.57 649.06,623.52 C639.40,631.78 629.47,640.09 627.00,642.00 C624.53,643.90 621.84,646.37 621.03,647.48 C620.23,648.59 618.65,650.28 617.53,651.23 C616.41,652.18 607.83,659.60 598.46,667.73 C579.07,684.54 574.00,688.55 574.00,687.05 C574.00,686.47 572.88,686.00 571.50,686.00 C570.12,686.00 568.99,685.44 568.97,684.75 C568.95,684.06 568.49,684.28 567.92,685.25 C567.36,686.21 566.22,687.00 565.38,687.00 C564.54,687.00 563.18,687.68 562.35,688.50 C561.02,689.84 561.02,690.07 562.43,690.61 C563.47,691.01 564.00,692.47 564.00,694.91 C564.00,699.29 562.21,701.17 547.89,711.85 C542.60,715.79 537.06,720.14 535.59,721.51 C534.11,722.88 532.69,724.00 532.43,724.00 C532.17,724.00 526.45,727.99 519.73,732.87 C499.73,747.36 483.10,758.18 472.68,763.48 C464.09,767.85 461.96,768.51 455.59,768.84 C444.73,769.38 439.41,765.99 429.63,752.31 C423.46,743.68 412.08,717.98 406.99,701.20 C405.77,697.18 404.55,694.12 404.27,694.40 C403.74,694.92 406.83,708.74 407.86,710.50 C408.18,711.05 408.59,712.53 408.76,713.78 C410.24,724.49 425.02,755.95 431.97,763.16 C434.53,765.82 436.38,768.01 436.07,768.03 C435.75,768.04 437.95,769.61 440.95,771.53 C445.87,774.65 447.11,775.00 453.52,775.00 C457.44,775.00 463.02,774.29 465.93,773.43 ZM 475.01 746.11 C477.48,744.94 482.07,742.05 485.21,739.69 C496.95,730.88 574.67,660.35 605.04,630.96 C608.32,627.79 706.56,531.35 718.59,519.50 C723.61,514.55 733.28,505.33 740.08,499.00 C746.87,492.67 762.35,478.04 774.47,466.48 C786.58,454.92 803.59,439.02 812.26,431.14 C833.08,412.21 833.83,411.08 827.27,408.34 C823.41,406.73 816.75,406.97 755.50,410.98 C747.25,411.52 736.45,412.20 731.50,412.49 C696.58,414.55 661.54,417.43 650.66,419.14 L 643.83 420.21 L 651.66 425.20 C664.21,433.18 670.00,439.60 670.00,445.52 C670.00,447.99 669.90,448.05 668.29,446.43 C667.35,445.49 665.11,444.11 663.32,443.36 C659.28,441.67 648.00,441.52 648.00,443.15 C648.00,443.98 644.88,444.11 636.50,443.61 C627.95,443.09 625.00,443.22 625.00,444.10 C625.00,444.96 622.75,445.09 616.50,444.59 C610.17,444.07 608.00,444.20 608.00,445.10 C608.00,445.98 605.79,446.14 599.53,445.70 C593.88,445.30 590.83,445.46 590.38,446.19 C589.93,446.93 586.65,447.08 580.35,446.67 C574.33,446.27 571.00,446.41 571.00,447.06 C571.00,447.66 567.45,448.07 562.25,448.08 C542.10,448.11 540.00,448.21 540.00,449.11 C540.00,450.01 537.68,450.10 519.75,449.95 C514.50,449.91 512.00,450.26 512.00,451.04 C512.00,451.87 510.06,452.02 505.25,451.57 C501.54,451.23 497.95,451.31 497.28,451.76 C495.16,453.18 482.19,451.48 479.99,449.49 C476.07,445.94 477.90,433.75 483.45,426.48 C487.02,421.79 489.63,420.21 495.64,419.07 C502.84,417.70 551.81,414.39 607.92,411.48 C665.14,408.51 667.20,408.27 682.00,402.88 C702.91,395.26 740.15,368.75 788.48,327.10 C812.36,306.53 814.41,303.41 806.59,299.59 C802.04,297.37 788.00,296.06 788.00,297.85 C788.00,298.59 786.51,298.76 783.50,298.34 C780.30,297.91 779.00,298.08 779.00,298.94 C779.00,299.76 778.06,299.95 776.15,299.53 C773.31,298.91 743.85,301.58 741.00,302.72 C740.17,303.05 739.13,303.23 738.67,303.13 C738.21,303.03 733.48,303.44 728.17,304.04 C722.85,304.64 717.83,305.15 717.00,305.16 C714.73,305.22 699.67,306.71 678.50,308.98 C668.05,310.10 646.22,312.36 630.00,313.99 C596.52,317.37 578.66,319.27 558.50,321.62 C550.80,322.51 543.26,323.18 541.75,323.11 C540.24,323.03 539.00,323.43 539.00,324.00 C539.00,324.63 537.49,324.78 535.00,324.38 C532.24,323.94 531.00,324.11 531.00,324.92 C531.00,325.72 529.88,325.88 527.50,325.43 C525.19,325.00 524.00,325.16 524.00,325.90 C524.00,326.65 522.67,326.81 520.00,326.38 C517.80,326.03 516.00,326.14 516.00,326.62 C516.00,327.11 512.77,327.60 508.83,327.72 C504.77,327.84 501.35,328.43 500.95,329.07 C500.52,329.78 499.09,329.96 497.22,329.55 C495.53,329.18 493.92,329.32 493.58,329.88 C493.24,330.42 491.40,330.61 489.48,330.30 C487.10,329.92 486.00,330.12 486.00,330.96 C486.00,331.82 484.85,331.98 482.00,331.50 C479.42,331.06 478.00,331.20 478.00,331.89 C478.00,332.53 476.83,332.72 475.00,332.35 C473.00,331.95 472.00,332.15 472.00,332.95 C472.00,333.77 471.04,333.95 469.00,333.50 C467.01,333.06 466.00,333.23 466.00,334.00 C466.00,334.77 464.99,334.94 463.00,334.50 C461.03,334.07 460.00,334.23 460.00,334.99 C460.00,335.68 459.21,335.88 458.00,335.50 C456.80,335.12 456.00,335.32 456.00,336.00 C456.00,336.68 455.20,336.88 454.00,336.50 C452.77,336.11 452.00,336.32 452.00,337.04 C452.00,337.69 451.37,337.97 450.59,337.67 C448.90,337.02 442.00,339.00 442.00,340.14 C442.00,340.58 441.43,340.72 440.74,340.45 C438.76,339.69 422.07,348.71 416.20,353.72 C410.94,358.21 402.27,369.42 402.75,371.12 C402.89,371.60 402.52,372.00 401.94,372.00 C401.36,372.00 401.16,372.45 401.50,373.00 C401.84,373.55 401.61,374.00 401.00,374.00 C400.39,374.00 400.16,374.45 400.50,375.00 C400.84,375.55 400.61,376.00 400.00,376.00 C399.39,376.00 399.16,376.45 399.50,377.00 C399.84,377.55 399.59,378.00 398.95,378.00 C398.31,378.00 398.05,378.67 398.36,379.50 C398.68,380.33 398.47,381.00 397.91,381.00 C397.34,381.00 397.16,381.45 397.50,382.01 C397.85,382.56 397.40,383.74 396.51,384.64 C395.61,385.53 395.12,386.87 395.41,387.63 C395.70,388.38 395.45,389.00 394.86,389.00 C394.27,389.00 394.05,389.67 394.36,390.50 C394.68,391.33 394.47,392.00 393.90,392.00 C393.32,392.00 393.14,392.88 393.50,394.00 C393.86,395.12 393.68,396.00 393.10,396.00 C392.53,396.00 392.32,396.67 392.64,397.50 C392.95,398.33 392.73,399.00 392.14,399.00 C391.55,399.00 391.32,399.67 391.64,400.50 C391.95,401.33 391.76,402.00 391.20,402.00 C390.64,402.00 390.42,402.90 390.71,404.00 C391.00,405.10 390.84,406.00 390.37,406.00 C389.89,406.00 389.43,407.18 389.35,408.63 C389.26,410.08 388.69,411.58 388.06,411.96 C387.44,412.35 387.22,413.41 387.57,414.33 C387.93,415.25 387.76,416.00 387.20,416.00 C386.64,416.00 386.42,416.90 386.71,418.00 C387.00,419.10 386.84,420.00 386.37,420.00 C385.89,420.00 385.40,421.46 385.27,423.24 C385.15,425.03 384.61,426.63 384.08,426.81 C383.55,426.98 383.36,427.78 383.66,428.56 C383.97,429.35 383.73,430.00 383.14,430.00 C382.55,430.00 382.32,430.67 382.64,431.50 C382.95,432.33 382.73,433.00 382.14,433.00 C381.55,433.00 381.32,433.67 381.64,434.50 C381.95,435.33 381.73,436.00 381.14,436.00 C380.55,436.00 380.32,436.67 380.64,437.50 C380.95,438.33 380.73,439.00 380.14,439.00 C379.55,439.00 379.32,439.67 379.64,440.50 C379.95,441.33 379.69,442.00 379.04,442.00 C378.32,442.00 378.11,442.77 378.50,444.00 C378.86,445.12 378.68,446.00 378.10,446.00 C377.53,446.00 377.32,446.67 377.64,447.50 C377.95,448.33 377.73,449.00 377.14,449.00 C376.55,449.00 376.32,449.67 376.64,450.50 C376.96,451.33 376.67,452.00 376.00,452.00 C375.28,452.00 375.05,452.68 375.43,453.67 C375.78,454.59 375.58,455.64 374.98,456.01 C374.39,456.38 373.83,457.76 373.75,459.09 C373.66,460.42 373.18,461.79 372.67,462.14 C372.17,462.49 371.75,463.95 371.75,465.39 C371.75,466.82 371.37,468.00 370.91,468.00 C370.44,468.00 370.32,468.67 370.64,469.50 C370.95,470.33 370.73,471.00 370.14,471.00 C369.55,471.00 369.32,471.67 369.64,472.50 C369.96,473.33 369.67,474.00 369.00,474.00 C368.33,474.00 368.04,474.67 368.36,475.50 C368.68,476.33 368.45,477.00 367.86,477.00 C367.27,477.00 367.05,477.67 367.36,478.50 C367.68,479.33 367.47,480.00 366.90,480.00 C366.32,480.00 366.14,480.88 366.50,482.00 C366.86,483.12 366.68,484.00 366.10,484.00 C365.53,484.00 365.32,484.67 365.64,485.50 C365.95,486.33 365.73,487.00 365.14,487.00 C364.55,487.00 364.32,487.67 364.64,488.50 C364.96,489.33 364.67,490.00 364.00,490.00 C363.33,490.00 363.04,490.67 363.36,491.50 C363.68,492.33 363.56,493.00 363.09,493.00 C362.63,493.00 362.25,494.18 362.25,495.61 C362.25,497.05 361.69,498.58 361.00,499.00 C360.31,499.43 360.05,500.28 360.43,500.89 C360.81,501.50 360.69,502.00 360.17,502.00 C359.65,502.00 359.27,502.56 359.32,503.25 C359.51,505.79 357.75,512.00 356.83,512.00 C356.31,512.00 356.16,512.45 356.50,513.00 C356.84,513.55 356.68,514.00 356.15,514.00 C355.62,514.00 355.42,514.90 355.71,516.00 C356.00,517.10 355.84,518.00 355.37,518.00 C354.89,518.00 354.43,519.22 354.34,520.72 C354.26,522.22 353.72,523.59 353.15,523.78 C352.58,523.97 352.36,524.78 352.66,525.56 C352.97,526.35 352.73,527.00 352.14,527.00 C351.55,527.00 351.32,527.67 351.64,528.50 C351.95,529.33 351.72,530.00 351.12,530.00 C350.52,530.00 350.11,530.79 350.22,531.75 C350.48,534.12 348.94,541.00 348.14,541.00 C347.79,541.00 347.43,542.18 347.35,543.63 C347.26,545.08 346.81,546.54 346.35,546.88 C345.88,547.22 345.36,548.85 345.18,550.50 C345.00,552.15 344.47,553.64 343.99,553.81 C343.51,553.99 343.36,554.78 343.66,555.56 C343.97,556.35 343.67,557.00 343.00,557.00 C342.33,557.00 342.04,557.67 342.36,558.50 C342.68,559.33 342.54,560.00 342.06,560.00 C341.58,560.00 341.42,560.90 341.71,562.00 C342.01,563.16 341.74,564.00 341.06,564.00 C340.41,564.00 340.11,564.37 340.39,564.83 C340.67,565.28 338.85,572.37 336.34,580.58 C333.84,588.78 331.55,596.51 331.28,597.75 C331.00,598.99 330.35,600.00 329.84,600.00 C329.33,600.00 329.02,600.56 329.16,601.25 C329.54,603.23 326.71,613.00 325.75,613.00 C325.27,613.00 325.11,613.38 325.40,613.84 C326.13,615.03 323.85,622.00 322.73,622.00 C322.21,622.00 322.05,622.67 322.36,623.50 C322.68,624.33 322.47,625.00 321.90,625.00 C321.32,625.00 321.14,625.88 321.50,627.00 C321.85,628.10 321.77,629.00 321.32,629.00 C320.87,629.00 320.43,630.18 320.35,631.63 C320.26,633.08 319.81,634.54 319.35,634.88 C318.88,635.22 318.40,636.81 318.29,638.42 C318.17,640.02 317.60,641.63 317.01,642.00 C316.42,642.36 316.22,643.41 316.57,644.33 C316.93,645.25 316.78,646.00 316.26,646.00 C315.73,646.00 315.26,647.42 315.21,649.15 C315.17,650.89 314.76,652.57 314.31,652.90 C313.87,653.23 313.38,654.62 313.24,656.00 C312.86,659.68 309.84,669.00 309.03,669.00 C308.65,669.00 308.33,670.39 308.33,672.09 C308.33,673.79 307.92,675.47 307.40,675.84 C306.89,676.20 306.41,677.80 306.34,679.38 C306.26,680.96 305.64,682.60 304.97,683.02 C304.30,683.44 304.05,684.28 304.43,684.89 C304.81,685.50 304.72,686.00 304.23,686.00 C303.73,686.00 303.33,687.39 303.33,689.09 C303.33,690.79 302.75,692.54 302.04,692.98 C301.33,693.42 301.05,694.28 301.43,694.89 C301.81,695.50 301.75,696.00 301.31,696.00 C300.86,696.00 300.43,697.01 300.35,698.25 C300.26,699.49 299.67,701.85 299.03,703.50 C298.38,705.15 297.81,706.72 297.75,707.00 C297.69,707.28 297.07,708.08 296.36,708.78 C295.66,709.48 295.34,710.72 295.65,711.53 C295.96,712.34 295.73,713.00 295.14,713.00 C294.55,713.00 294.32,713.67 294.64,714.49 C294.96,715.34 294.52,716.25 293.61,716.60 C292.73,716.93 292.26,717.61 292.56,718.10 C292.87,718.60 292.62,719.00 292.01,719.00 C290.11,719.00 287.81,725.78 288.97,727.94 C290.87,731.50 292.94,732.80 297.73,733.46 C304.49,734.39 316.34,730.45 326.14,724.01 C336.86,716.96 363.24,690.65 396.40,653.93 C419.16,628.73 431.42,614.81 438.62,606.00 C440.20,604.08 442.73,601.15 444.24,599.50 C447.23,596.25 453.05,585.73 455.69,578.81 C456.84,575.82 457.52,569.78 457.92,559.08 C458.34,547.96 458.85,543.54 459.76,543.24 C461.91,542.53 464.00,549.44 463.99,557.22 C463.96,571.26 459.11,584.62 449.23,597.90 C442.44,607.03 418.61,636.03 407.75,648.38 C400.61,656.49 399.95,657.60 400.16,661.13 C400.29,663.26 400.80,665.00 401.30,665.00 C401.80,665.00 401.95,665.67 401.64,666.50 C401.32,667.33 401.53,668.00 402.09,668.00 C402.66,668.00 402.91,668.34 402.66,668.75 C402.41,669.16 402.92,670.16 403.80,670.97 C405.19,672.26 405.31,672.26 404.79,670.97 C402.68,665.77 402.64,665.43 404.32,667.00 C405.20,667.83 408.65,673.85 411.98,680.38 C415.32,686.91 418.94,693.51 420.02,695.03 C421.11,696.56 422.00,698.19 422.00,698.66 C422.00,699.14 423.02,700.64 424.26,702.01 C425.50,703.38 427.30,705.72 428.26,707.22 C429.22,708.72 432.05,712.32 434.54,715.22 C440.93,722.66 440.96,722.70 440.19,723.55 C439.81,723.98 440.07,723.99 440.78,723.58 C441.57,723.13 444.24,724.75 447.88,727.90 C452.23,731.66 455.21,733.34 459.57,734.48 C466.93,736.39 468.21,736.38 472.78,734.35 C474.83,733.44 476.87,732.77 477.32,732.87 C477.78,732.97 477.88,732.62 477.56,732.09 C476.87,730.98 478.13,730.05 481.10,729.48 C484.60,728.81 496.38,719.42 495.50,718.01 C495.27,717.63 496.75,715.78 498.79,713.91 L 502.50 710.50 L 499.56 713.75 C497.95,715.54 496.97,717.00 497.40,717.00 C498.27,717.00 524.65,693.34 536.00,682.38 C540.12,678.39 545.25,673.75 547.39,672.06 C553.27,667.43 560.00,661.06 560.00,660.14 C560.00,659.32 563.98,655.51 571.51,649.11 C573.70,647.24 586.51,635.09 599.96,622.11 C613.41,609.12 629.39,593.82 635.46,588.09 C641.53,582.36 652.12,572.21 659.00,565.52 C665.88,558.83 679.58,545.74 689.46,536.43 C727.94,500.17 773.99,454.37 779.29,447.10 C781.06,444.68 785.24,439.73 788.59,436.10 C794.72,429.44 798.00,425.17 798.00,423.82 C798.00,423.42 796.31,422.81 794.25,422.46 C792.19,422.11 787.26,421.19 783.29,420.42 C779.33,419.64 773.70,418.99 770.79,418.98 C765.44,418.97 761.91,417.79 763.78,416.64 C766.71,414.83 823.35,411.20 825.00,412.71 C825.28,412.97 823.70,414.60 821.50,416.34 C813.05,423.02 794.30,440.74 761.53,473.00 C742.81,491.43 725.25,508.28 722.50,510.46 C715.20,516.23 706.04,525.03 649.50,580.55 C621.45,608.09 595.13,633.75 591.02,637.56 C586.90,641.38 582.40,645.64 581.02,647.04 C579.63,648.44 572.88,654.71 566.00,660.98 C559.12,667.24 548.19,677.35 541.70,683.44 C535.20,689.52 528.57,695.18 526.96,696.02 C525.35,696.85 519.59,701.80 514.17,707.02 C493.46,726.94 483.75,735.26 475.10,740.50 C469.24,744.05 467.73,744.52 461.57,744.68 C455.38,744.83 454.19,744.54 450.35,741.90 C447.99,740.27 444.67,736.92 442.97,734.45 C441.27,731.98 439.42,730.24 438.87,730.58 C436.81,731.85 448.23,743.62 454.50,746.67 C460.55,749.62 468.03,749.41 475.01,746.11 ZM 739.37 588.35 C741.66,585.89 741.94,583.00 739.89,583.00 C739.40,583.00 739.00,582.33 739.00,581.50 C739.00,580.67 738.36,580.00 737.57,580.00 C736.79,580.00 735.94,579.21 735.69,578.25 C735.35,576.93 735.20,577.06 735.12,578.75 C735.03,580.47 734.39,581.00 732.43,581.00 C730.32,581.00 729.98,581.35 730.50,583.00 C731.04,584.70 730.68,585.00 728.07,585.00 C726.38,585.00 725.00,585.45 725.00,586.00 C725.00,586.55 726.35,587.00 728.00,587.00 C729.93,587.00 731.00,587.51 731.00,588.43 C731.00,589.74 732.63,590.59 735.71,590.88 C736.37,590.95 738.02,589.81 739.37,588.35 ZM 264.00 557.94 C264.00,557.36 264.45,557.16 265.01,557.50 C266.65,558.52 269.21,555.23 268.50,553.00 C268.15,551.90 267.38,551.00 266.79,551.00 C266.20,551.00 265.12,550.21 264.39,549.25 C263.15,547.61 263.06,547.61 263.03,549.22 C263.01,550.33 262.47,550.73 261.50,550.36 C260.05,549.80 259.48,551.46 259.95,554.87 C260.33,557.59 264.00,560.38 264.00,557.94 ZM 334.87 549.45 C343.60,542.11 355.55,500.85 360.59,460.65 C365.41,422.21 368.74,407.45 375.73,393.52 C389.28,366.49 414.96,345.32 447.24,334.57 C461.04,329.97 468.38,328.53 496.00,324.97 C522.54,321.56 537.57,318.90 546.84,315.99 C550.33,314.90 554.99,314.00 557.20,314.00 C560.62,314.00 561.11,313.74 560.52,312.25 C560.14,311.29 559.41,307.66 558.91,304.18 C557.44,294.08 561.90,278.97 568.98,270.02 C572.60,265.46 572.89,261.18 569.92,256.37 C568.77,254.52 567.54,253.00 567.17,252.99 C566.80,252.99 555.62,252.88 542.33,252.74 C518.48,252.50 518.13,252.53 515.77,254.75 C513.81,256.59 512.23,257.00 507.14,257.00 C501.86,257.00 500.54,257.37 498.45,259.45 C495.97,261.94 495.11,266.00 497.07,266.00 C497.68,266.00 497.86,266.85 497.50,268.00 C497.14,269.12 497.32,270.00 497.90,270.00 C498.47,270.00 498.68,270.67 498.36,271.50 C498.05,272.33 498.18,273.00 498.66,273.00 C499.64,273.00 500.17,280.30 499.44,283.75 L 498.96 286.00 L 424.48 286.00 C375.49,286.00 350.00,285.66 350.00,285.00 C350.00,283.56 321.47,283.69 318.68,285.14 C316.61,286.21 312.05,290.43 312.90,290.48 C313.12,290.49 312.99,292.56 312.62,295.08 C312.20,297.86 312.53,303.11 313.46,308.46 C314.31,313.30 315.00,317.61 315.00,318.02 C315.00,318.44 306.39,318.72 295.87,318.64 L 276.74 318.50 L 274.66 321.27 C272.78,323.77 272.71,324.36 273.92,327.27 C274.65,329.05 275.40,332.25 275.58,334.40 C275.78,336.82 276.83,339.28 278.35,340.90 C281.36,344.11 282.25,348.14 281.24,353.96 C280.52,358.04 280.15,358.49 276.99,359.14 C275.08,359.53 272.89,360.78 272.13,361.92 C270.83,363.89 269.86,364.00 253.50,364.00 C235.50,364.00 233.12,364.55 234.59,368.37 C234.93,369.27 234.72,370.00 234.11,370.00 C230.95,370.00 234.66,379.77 239.99,385.50 C241.53,387.15 244.16,390.98 245.84,394.00 C249.10,399.86 260.14,423.73 265.17,435.76 C266.83,439.76 269.01,443.60 270.01,444.29 C271.01,444.99 274.62,452.30 278.04,460.53 C286.28,480.37 300.58,510.00 301.91,510.00 C302.49,510.00 304.35,512.74 306.04,516.08 C307.73,519.43 311.79,526.67 315.06,532.18 C318.33,537.68 321.01,543.16 321.03,544.34 C321.07,547.13 323.05,549.70 326.09,550.91 C329.94,552.45 331.65,552.17 334.87,549.45 ZM 771.71 544.57 C772.96,544.61 773.61,544.15 773.33,543.42 C772.77,541.96 774.26,540.93 778.41,539.94 L 781.50 539.20 L 778.37 539.10 C774.21,538.97 772.55,536.97 774.49,534.42 C776.54,531.70 776.34,530.38 774.17,532.35 C771.58,534.69 770.32,534.41 769.16,531.25 C768.25,528.76 768.15,528.71 768.08,530.75 C768.02,532.32 767.38,533.00 765.98,533.00 C764.74,533.00 763.58,533.97 763.01,535.47 C762.49,536.83 761.04,538.16 759.79,538.43 C758.53,538.70 756.60,539.11 755.50,539.35 C754.40,539.58 755.59,539.82 758.14,539.88 C763.30,540.01 764.77,541.69 762.87,545.25 C761.78,547.27 761.84,547.27 764.62,545.07 L 767.50 542.80 L 767.89 546.15 C768.26,549.29 768.33,549.35 768.95,547.00 C769.41,545.31 770.30,544.52 771.71,544.57 ZM 408.29 242.20 C411.29,240.75 412.22,236.00 409.50,236.00 C408.67,236.00 408.00,235.55 408.00,235.00 C408.00,234.45 407.45,234.11 406.78,234.25 C406.09,234.39 405.31,232.99 404.98,231.00 L 404.40 227.50 L 403.63 231.66 C403.00,235.01 402.27,236.06 399.82,237.07 L 396.79 238.33 L 399.04 240.03 C400.28,240.96 401.00,242.19 400.66,242.75 C400.31,243.31 400.92,244.01 402.01,244.29 C403.11,244.58 404.04,245.64 404.10,246.66 C404.17,247.95 404.41,247.75 404.89,246.00 C405.27,244.62 406.80,242.91 408.29,242.20 ZM 449.00 771.00 C446.16,770.40 446.85,770.24 452.59,770.13 C460.71,769.98 468.44,767.62 477.40,762.56 C483.86,758.91 505.41,744.44 518.99,734.64 C523.46,731.42 527.35,729.02 527.63,729.30 C527.92,729.59 525.31,731.74 521.83,734.09 C518.35,736.44 514.91,739.18 514.19,740.18 C513.47,741.18 512.40,742.00 511.80,742.00 C511.20,742.00 508.71,743.63 506.28,745.63 C500.38,750.46 492.28,756.00 491.11,756.00 C490.59,756.00 490.02,756.36 489.83,756.81 C489.17,758.42 480.09,764.00 478.13,764.00 C477.02,764.00 475.84,764.46 475.49,765.02 C474.13,767.22 459.21,772.14 454.70,771.87 C453.49,771.80 450.92,771.41 449.00,771.00 ZM 483.40 726.15 C485.52,723.76 486.00,723.54 486.00,724.96 C486.00,725.50 484.99,726.46 483.75,727.11 C481.51,728.28 481.51,728.28 483.40,726.15 ZM 295.16 722.70 C294.38,721.75 294.50,720.60 295.62,718.45 C296.47,716.83 299.11,709.42 301.49,702.00 C314.44,661.63 319.07,646.71 320.91,639.43 C323.19,630.40 325.46,624.45 326.99,623.51 C327.55,623.16 327.78,621.67 327.50,620.19 C327.22,618.71 327.27,618.13 327.62,618.89 C328.21,620.17 334.79,599.55 337.17,589.00 C340.70,573.30 353.80,532.41 376.56,466.00 C379.48,457.48 382.60,448.02 383.50,445.00 C384.39,441.98 387.77,431.38 391.00,421.45 C394.24,411.53 397.09,402.30 397.34,400.95 C398.67,393.86 403.48,379.00 406.05,374.05 C411.51,363.58 423.05,352.52 434.54,346.76 C443.66,342.20 458.32,338.09 473.05,335.98 C482.88,334.58 537.89,327.74 565.00,324.56 C576.83,323.18 589.20,321.57 592.50,320.99 C597.69,320.08 609.76,319.00 643.00,316.47 C649.88,315.94 665.18,314.32 685.50,311.96 C697.89,310.53 711.67,309.17 721.00,308.48 C725.67,308.13 734.67,307.18 741.00,306.37 C774.96,302.03 795.93,300.61 800.75,302.33 C803.53,303.33 803.62,305.38 801.00,308.00 C798.80,310.20 796.44,310.73 797.63,308.75 C798.14,307.90 797.84,307.94 796.69,308.87 C794.72,310.47 794.43,311.46 796.25,310.37 C797.06,309.88 797.00,310.23 796.09,311.35 C795.31,312.31 794.10,312.87 793.39,312.60 C792.68,312.32 791.06,312.97 789.80,314.03 C788.03,315.51 787.80,316.16 788.80,316.82 C789.86,317.52 789.86,317.86 788.80,318.68 C786.23,320.67 784.66,321.35 785.40,320.15 C787.23,317.20 783.91,319.54 778.97,324.70 C775.96,327.83 774.40,329.75 775.50,328.96 C777.47,327.55 777.48,327.56 775.62,329.74 C774.58,330.96 773.27,331.67 772.71,331.32 C772.15,330.97 771.97,331.14 772.31,331.69 C772.91,332.66 762.94,342.00 761.32,342.00 C760.87,341.99 761.85,340.88 763.50,339.53 C765.15,338.18 766.02,337.06 765.42,337.04 C764.04,336.99 759.80,341.47 760.54,342.21 C761.41,343.08 753.01,349.86 750.63,350.20 C749.46,350.36 748.50,351.04 748.50,351.71 C748.50,353.30 744.89,355.90 743.45,355.34 C742.83,355.10 741.69,355.69 740.91,356.65 C739.68,358.16 739.70,358.28 741.00,357.62 C744.76,355.71 733.57,364.77 725.02,370.55 C719.78,374.09 711.22,379.96 706.00,383.60 C696.58,390.16 678.18,399.69 670.50,402.00 C668.20,402.69 657.98,403.37 646.50,403.59 C635.50,403.81 617.28,404.44 606.00,405.00 C594.72,405.55 578.97,406.23 571.00,406.49 C556.70,406.97 556.59,406.95 563.00,405.58 C566.73,404.77 579.94,403.84 594.00,403.39 C607.47,402.96 617.15,402.32 615.50,401.98 C610.85,401.03 625.92,400.05 644.00,400.15 C655.41,400.20 660.69,399.82 664.00,398.70 C666.47,397.87 670.08,396.87 672.00,396.48 C676.12,395.66 690.89,388.66 694.51,385.82 C695.89,384.73 696.72,383.36 696.36,382.77 C695.96,382.13 696.16,381.98 696.85,382.41 C697.52,382.82 699.40,381.73 701.30,379.81 C707.71,373.35 715.35,367.00 716.73,367.00 C719.11,367.00 729.18,356.78 728.68,354.87 C728.41,353.86 729.41,352.02 731.11,350.39 C735.86,345.84 734.75,341.80 727.59,337.61 C725.15,336.17 721.84,335.00 720.25,335.00 C718.66,335.00 715.25,334.28 712.68,333.41 C706.13,331.17 668.52,331.95 642.00,334.87 C631.28,336.05 614.40,337.22 604.50,337.48 C594.60,337.73 584.25,338.41 581.50,338.99 C572.83,340.83 557.94,342.85 545.00,343.94 C501.80,347.57 483.38,350.96 463.59,358.91 C451.88,363.61 445.34,367.91 436.79,376.54 C422.57,390.89 419.31,394.10 415.31,397.71 C413.00,399.80 410.83,402.29 410.49,403.25 C410.15,404.21 409.45,405.00 408.93,405.00 C407.68,405.00 407.74,400.28 409.00,399.50 C409.55,399.16 410.00,396.34 410.00,393.24 C410.00,389.11 409.70,387.90 408.89,388.71 C407.53,390.07 394.21,428.79 389.02,446.50 C381.08,473.58 375.00,492.93 370.48,505.50 C367.91,512.65 364.56,522.55 363.04,527.50 C361.51,532.45 357.25,545.28 353.57,556.00 C340.32,594.59 326.90,635.37 325.86,640.22 C325.28,642.94 323.25,649.07 321.36,653.84 C319.48,658.60 316.79,666.55 315.40,671.50 C314.01,676.45 312.49,681.85 312.02,683.50 C304.14,711.42 304.18,713.49 312.78,717.93 C317.14,720.18 311.26,723.68 306.12,721.89 C303.84,721.10 302.48,721.22 300.13,722.43 C296.47,724.33 296.51,724.32 295.16,722.70 ZM 758.13 344.34 C759.37,342.83 759.29,342.78 757.25,343.87 C754.92,345.11 754.35,346.00 755.88,346.00 C756.36,346.00 757.37,345.25 758.13,344.34 ZM 787.50 318.00 C787.84,317.45 787.64,317.00 787.06,317.00 C786.48,317.00 786.00,317.45 786.00,318.00 C786.00,318.55 786.20,319.00 786.44,319.00 C786.68,319.00 787.16,318.55 787.50,318.00 ZM 323.75 716.24 C322.79,716.03 322.00,715.63 322.00,715.36 C322.00,713.73 324.46,710.81 326.92,709.54 C332.13,706.85 350.97,688.97 387.03,652.52 C422.41,616.75 427.17,611.76 438.40,598.71 C441.62,594.97 444.49,592.15 444.78,592.45 C445.08,592.75 444.57,593.81 443.66,594.82 C442.75,595.83 442.00,597.00 442.00,597.41 C442.00,601.61 374.59,675.10 372.14,673.58 C371.62,673.26 369.91,674.61 368.35,676.57 C362.70,683.63 339.38,707.28 334.00,711.39 C327.89,716.06 326.31,716.81 323.75,716.24 ZM 377.52 668.00 C377.85,667.18 376.75,667.82 375.06,669.44 C373.38,671.05 372.00,672.54 372.00,672.73 C372.00,673.61 376.98,669.35 377.52,668.00 ZM 463.50 530.40 C462.40,529.55 460.83,528.47 460.00,527.99 C457.50,526.54 461.77,523.96 464.78,525.11 C468.01,526.34 482.00,526.25 482.00,525.00 C482.00,524.38 487.89,524.00 497.68,524.00 C512.16,524.00 516.98,523.65 539.44,520.95 C549.08,519.79 556.02,516.79 555.31,514.08 C554.92,512.58 556.05,511.80 561.41,509.88 C565.04,508.58 568.00,506.98 568.00,506.33 C568.00,504.51 576.77,499.00 579.67,499.00 C581.95,499.00 582.09,498.81 580.87,497.34 C579.73,495.95 579.72,495.60 580.85,495.22 C583.02,494.49 591.00,486.74 591.00,485.36 C591.00,484.66 589.42,483.79 587.49,483.43 C583.28,482.64 582.48,481.66 584.44,479.70 C585.25,478.90 585.70,478.03 585.45,477.78 C584.91,477.25 597.20,472.40 601.25,471.54 C607.37,470.25 603.23,469.27 589.25,468.70 C574.19,468.09 563.58,466.55 561.12,464.62 C560.02,463.76 560.30,463.32 562.56,462.40 C565.80,461.07 553.50,461.29 525.00,463.04 C478.06,465.94 458.00,466.53 458.00,465.00 C458.00,464.42 461.25,464.00 465.75,464.00 C475.20,464.01 497.01,462.57 527.00,459.97 C556.48,457.42 557.24,457.36 573.00,456.10 C580.42,455.51 591.90,454.55 598.50,453.98 C605.10,453.41 616.12,452.67 623.00,452.34 C631.54,451.93 636.77,451.19 639.50,450.00 C646.97,446.76 664.00,446.66 664.00,449.86 C664.00,450.29 660.74,452.53 656.75,454.85 C643.68,462.42 625.78,475.77 601.01,496.41 C592.37,503.61 581.89,511.51 577.70,513.97 C573.52,516.42 570.25,518.59 570.45,518.78 C570.64,518.97 573.53,517.75 576.87,516.07 C583.55,512.69 584.00,512.56 584.00,513.96 C584.00,515.80 571.89,523.14 566.71,524.44 C560.24,526.05 547.47,527.69 530.45,529.06 C514.70,530.34 475.26,530.67 469.00,529.58 C464.53,528.80 464.11,530.23 468.50,531.29 C470.13,531.68 470.04,531.78 468.00,531.85 C466.62,531.90 464.60,531.24 463.50,530.40 ZM 236.39 373.58 C235.66,371.66 237.72,368.00 239.54,368.00 C241.35,368.00 241.35,368.00 239.43,371.85 C237.67,375.37 237.18,375.64 236.39,373.58 ZM 316.56 298.67 C313.48,296.41 316.87,291.83 322.50,290.64 C325.44,290.02 325.43,290.05 322.00,291.78 C318.95,293.33 318.54,293.97 318.81,296.78 C319.17,300.43 319.07,300.51 316.56,298.67 ZM 544.00 291.00 C544.00,290.45 544.90,290.00 546.00,290.00 C547.10,290.00 548.00,290.45 548.00,291.00 C548.00,291.55 547.10,292.00 546.00,292.00 C544.90,292.00 544.00,291.55 544.00,291.00 ZM 550.77 290.83 C551.63,289.97 552.53,289.95 554.22,290.76 C556.36,291.80 556.29,291.87 553.05,291.93 C550.42,291.98 549.88,291.72 550.77,290.83 Z" fill="rgb(253,254,253)"/>
</g>
</svg>